<?xml version="1.0" encoding="UTF-8"?>
<!DOCTYPE svg PUBLIC "-//W3C//DTD SVG 1.1//EN" "http://www.w3.org/Graphics/SVG/1.1/DTD/svg11.dtd">
<svg xmlns="http://www.w3.org/2000/svg" version="1.1" width="242px" height="209px" style="shape-rendering:geometricPrecision; text-rendering:geometricPrecision; image-rendering:optimizeQuality; fill-rule:evenodd; clip-rule:evenodd" xmlns:xlink="http://www.w3.org/1999/xlink">
<g><path style="opacity:1" fill="#fbfbfb" d="M -0.5,-0.5 C 80.1667,-0.5 160.833,-0.5 241.5,-0.5C 241.5,12.5 241.5,25.5 241.5,38.5C 153.5,39.1667 153.5,39.8333 241.5,40.5C 241.5,42.1667 241.5,43.8333 241.5,45.5C 150.833,46.1667 150.833,46.8333 241.5,47.5C 241.5,51.1667 241.5,54.8333 241.5,58.5C 122.833,59.1667 122.833,59.8333 241.5,60.5C 241.5,61.8333 241.5,63.1667 241.5,64.5C 204.833,64.5 168.167,64.5 131.5,64.5C 131.5,65.5 131.5,66.5 131.5,67.5C 168.167,67.5 204.833,67.5 241.5,67.5C 241.5,68.8333 241.5,70.1667 241.5,71.5C 201.166,71.895 160.833,72.395 120.5,73C 160.832,73.5 201.165,73.6667 241.5,73.5C 241.5,75.1667 241.5,76.8333 241.5,78.5C 239.833,78.5 238.167,78.5 236.5,78.5C 219.5,78.5 202.5,78.5 185.5,78.5C 162.49,78.1669 139.49,78.5003 116.5,79.5C 141.158,80.4998 165.824,80.8331 190.5,80.5C 203.833,80.5 217.167,80.5 230.5,80.5C 234.167,80.5 237.833,80.5 241.5,80.5C 241.5,81.8333 241.5,83.1667 241.5,84.5C 201.498,84.6765 161.498,85.0098 121.5,85.5C 120.957,85.56 120.624,85.8933 120.5,86.5C 138.154,87.4995 155.821,87.8329 173.5,87.5C 196.167,87.5 218.833,87.5 241.5,87.5C 241.5,88.8333 241.5,90.1667 241.5,91.5C 222.167,91.5 202.833,91.5 183.5,91.5C 169.151,91.1674 154.818,91.5007 140.5,92.5C 150.144,93.4984 159.81,93.8318 169.5,93.5C 193.5,93.5 217.5,93.5 241.5,93.5C 241.5,95.1667 241.5,96.8333 241.5,98.5C 130.833,99.1667 130.833,99.8333 241.5,100.5C 241.5,101.833 241.5,103.167 241.5,104.5C 221.5,104.5 201.5,104.5 181.5,104.5C 181.5,105.5 181.5,106.5 181.5,107.5C 201.5,107.5 221.5,107.5 241.5,107.5C 241.5,108.833 241.5,110.167 241.5,111.5C 238.833,111.5 236.167,111.5 233.5,111.5C 226.687,110.509 219.687,110.175 212.5,110.5C 212.5,111.833 212.5,113.167 212.5,114.5C 222.167,114.5 231.833,114.5 241.5,114.5C 241.5,145.833 241.5,177.167 241.5,208.5C 160.833,208.5 80.1667,208.5 -0.5,208.5C -0.5,188.833 -0.5,169.167 -0.5,149.5C 12.6607,149.467 15.994,149.133 9.5,148.5C 9.5,145.833 9.5,143.167 9.5,140.5C 11.8568,140.663 14.1902,140.497 16.5,140C 15.9747,139.308 15.3081,138.808 14.5,138.5C 12.9291,139.309 11.2624,139.643 9.5,139.5C 9.5,137.167 9.5,134.833 9.5,132.5C 8.5,132.5 7.5,132.5 6.5,132.5C 6.5,137.833 6.5,143.167 6.5,148.5C 4.16667,148.5 1.83333,148.5 -0.5,148.5C -0.5,137.167 -0.5,125.833 -0.5,114.5C 9.16667,114.5 18.8333,114.5 28.5,114.5C 28.5,113.167 28.5,111.833 28.5,110.5C 18.8333,110.5 9.16667,110.5 -0.5,110.5C -0.5,109.5 -0.5,108.5 -0.5,107.5C 15.1667,107.5 30.8333,107.5 46.5,107.5C 46.5,106.5 46.5,105.5 46.5,104.5C 30.8333,104.5 15.1667,104.5 -0.5,104.5C -0.5,103.167 -0.5,101.833 -0.5,100.5C 2.83333,100.5 6.16667,100.5 9.5,100.5C 25.3246,101.496 41.3246,101.83 57.5,101.5C 57.5,100.167 57.5,98.8333 57.5,97.5C 38.1667,97.5 18.8333,97.5 -0.5,97.5C -0.5,96.1667 -0.5,94.8333 -0.5,93.5C 4.5,93.5 9.5,93.5 14.5,93.5C 30.9916,94.4965 47.6583,94.8298 64.5,94.5C 64.7373,93.209 64.404,92.209 63.5,91.5C 42.1667,91.5 20.8333,91.5 -0.5,91.5C -0.5,90.1667 -0.5,88.8333 -0.5,87.5C 24.8333,87.5 50.1667,87.5 75.5,87.5C 75.5,86.5 75.5,85.5 75.5,84.5C 50.1667,84.5 24.8333,84.5 -0.5,84.5C -0.5,83.1667 -0.5,81.8333 -0.5,80.5C 6.5,80.5 13.5,80.5 20.5,80.5C 24.1667,80.5 27.8333,80.5 31.5,80.5C 50.326,81.497 69.326,81.8303 88.5,81.5C 88.5,80.1667 88.5,78.8333 88.5,77.5C 58.8333,77.5 29.1667,77.5 -0.5,77.5C -0.5,76.1667 -0.5,74.8333 -0.5,73.5C 33.5065,73.8332 67.5065,73.4999 101.5,72.5C 67.4984,71.3 33.4984,71.3 -0.5,72.5C -0.5,70.5 -0.5,68.5 -0.5,66.5C 39.4926,67.3823 79.4926,67.7156 119.5,67.5C 120.404,66.791 120.737,65.791 120.5,64.5C 80.1667,64.5 39.8333,64.5 -0.5,64.5C -0.5,63.1667 -0.5,61.8333 -0.5,60.5C 188.833,59.8333 188.833,59.1667 -0.5,58.5C -0.5,56.8333 -0.5,55.1667 -0.5,53.5C 211.5,52.8333 211.5,52.1667 -0.5,51.5C -0.5,50.1667 -0.5,48.8333 -0.5,47.5C 223.5,46.8333 223.5,46.1667 -0.5,45.5C -0.5,43.8333 -0.5,42.1667 -0.5,40.5C 227.5,39.8333 227.5,39.1667 -0.5,38.5C -0.5,25.5 -0.5,12.5 -0.5,-0.5 Z"/></g>
<g><path style="opacity:1" fill="#aeaeae" d="M 241.5,38.5 C 241.5,39.1667 241.5,39.8333 241.5,40.5C 153.5,39.8333 153.5,39.1667 241.5,38.5 Z"/></g>
<g><path style="opacity:1" fill="#c5c5c5" d="M -0.5,38.5 C 227.5,39.1667 227.5,39.8333 -0.5,40.5C -0.5,39.8333 -0.5,39.1667 -0.5,38.5 Z"/></g>
<g><path style="opacity:1" fill="#a9a9a9" d="M -0.5,45.5 C 223.5,46.1667 223.5,46.8333 -0.5,47.5C -0.5,46.8333 -0.5,46.1667 -0.5,45.5 Z"/></g>
<g><path style="opacity:1" fill="#aaaaaa" d="M 241.5,45.5 C 241.5,46.1667 241.5,46.8333 241.5,47.5C 150.833,46.8333 150.833,46.1667 241.5,45.5 Z"/></g>
<g><path style="opacity:1" fill="#909090" d="M -0.5,51.5 C 211.5,52.1667 211.5,52.8333 -0.5,53.5C -0.5,52.8333 -0.5,52.1667 -0.5,51.5 Z"/></g>
<g><path style="opacity:1" fill="#5e5e5e" d="M -0.5,58.5 C 188.833,59.1667 188.833,59.8333 -0.5,60.5C -0.5,59.8333 -0.5,59.1667 -0.5,58.5 Z"/></g>
<g><path style="opacity:1" fill="#727272" d="M 241.5,58.5 C 241.5,59.1667 241.5,59.8333 241.5,60.5C 122.833,59.8333 122.833,59.1667 241.5,58.5 Z"/></g>
<g><path style="opacity:1" fill="#bbbbbb" d="M -0.5,65.5 C -0.5,65.1667 -0.5,64.8333 -0.5,64.5C 39.8333,64.5 80.1667,64.5 120.5,64.5C 120.737,65.791 120.404,66.791 119.5,67.5C 79.8473,65.5058 39.8473,64.8391 -0.5,65.5 Z"/></g>
<g><path style="opacity:1" fill="#636363" d="M -0.5,66.5 C -0.5,66.1667 -0.5,65.8333 -0.5,65.5C 39.8473,64.8391 79.8473,65.5058 119.5,67.5C 79.4926,67.7156 39.4926,67.3823 -0.5,66.5 Z"/></g>
<g><path style="opacity:1" fill="#a1a1a1" d="M 241.5,64.5 C 241.5,65.5 241.5,66.5 241.5,67.5C 204.833,67.5 168.167,67.5 131.5,67.5C 131.5,66.5 131.5,65.5 131.5,64.5C 168.167,64.5 204.833,64.5 241.5,64.5 Z"/></g>
<g><path style="opacity:1" fill="#2e2e2e" d="M -0.5,73.5 C -0.5,73.1667 -0.5,72.8333 -0.5,72.5C 33.4984,71.3 67.4984,71.3 101.5,72.5C 67.5065,73.4999 33.5065,73.8332 -0.5,73.5 Z"/></g>
<g><path style="opacity:1" fill="#393939" d="M 241.5,71.5 C 241.5,72.1667 241.5,72.8333 241.5,73.5C 201.165,73.6667 160.832,73.5 120.5,73C 160.833,72.395 201.166,71.895 241.5,71.5 Z"/></g>
<g><path style="opacity:1" fill="#606060" d="M -0.5,78.5 C 4.16667,78.5 8.83333,78.5 13.5,78.5C 15.8333,79.1667 18.1667,79.8333 20.5,80.5C 13.5,80.5 6.5,80.5 -0.5,80.5C -0.5,79.8333 -0.5,79.1667 -0.5,78.5 Z"/></g>
<g><path style="opacity:1" fill="#050505" d="M 13.5,78.5 C 38.1757,78.1669 62.8423,78.5002 87.5,79.5C 68.8452,80.4996 50.1786,80.8329 31.5,80.5C 27.8333,80.5 24.1667,80.5 20.5,80.5C 18.1667,79.8333 15.8333,79.1667 13.5,78.5 Z"/></g>
<g><path style="opacity:1" fill="#777777" d="M 185.5,78.5 C 187.167,79.1667 188.833,79.8333 190.5,80.5C 165.824,80.8331 141.158,80.4998 116.5,79.5C 139.49,78.5003 162.49,78.1669 185.5,78.5 Z"/></g>
<g><path style="opacity:1" fill="#141414" d="M 185.5,78.5 C 202.5,78.5 219.5,78.5 236.5,78.5C 234.5,79.1667 232.5,79.8333 230.5,80.5C 217.167,80.5 203.833,80.5 190.5,80.5C 188.833,79.8333 187.167,79.1667 185.5,78.5 Z"/></g>
<g><path style="opacity:1" fill="#5c5c5c" d="M 236.5,78.5 C 238.167,78.5 239.833,78.5 241.5,78.5C 241.5,79.1667 241.5,79.8333 241.5,80.5C 237.833,80.5 234.167,80.5 230.5,80.5C 232.5,79.8333 234.5,79.1667 236.5,78.5 Z"/></g>
<g><path style="opacity:1" fill="#cacaca" d="M -0.5,78.5 C -0.5,78.1667 -0.5,77.8333 -0.5,77.5C 29.1667,77.5 58.8333,77.5 88.5,77.5C 88.5,78.8333 88.5,80.1667 88.5,81.5C 69.326,81.8303 50.326,81.497 31.5,80.5C 50.1786,80.8329 68.8452,80.4996 87.5,79.5C 62.8423,78.5002 38.1757,78.1669 13.5,78.5C 8.83333,78.5 4.16667,78.5 -0.5,78.5 Z"/></g>
<g><path style="opacity:1" fill="#414141" d="M -0.5,84.5 C 24.8333,84.5 50.1667,84.5 75.5,84.5C 75.5,85.5 75.5,86.5 75.5,87.5C 50.1667,87.5 24.8333,87.5 -0.5,87.5C -0.5,86.5 -0.5,85.5 -0.5,84.5 Z"/></g>
<g><path style="opacity:1" fill="#2c2c2c" d="M 89.5,84.5 C 94.5,84.5 99.5,84.5 104.5,84.5C 104.5,85.5 104.5,86.5 104.5,87.5C 99.5,87.5 94.5,87.5 89.5,87.5C 89.5,86.5 89.5,85.5 89.5,84.5 Z"/></g>
<g><path style="opacity:1" fill="#343434" d="M 241.5,84.5 C 241.5,85.5 241.5,86.5 241.5,87.5C 218.833,87.5 196.167,87.5 173.5,87.5C 156.167,86.8333 138.833,86.1667 121.5,85.5C 161.498,85.0098 201.498,84.6765 241.5,84.5 Z"/></g>
<g><path style="opacity:1" fill="#d0d0d0" d="M 121.5,85.5 C 138.833,86.1667 156.167,86.8333 173.5,87.5C 155.821,87.8329 138.154,87.4995 120.5,86.5C 120.624,85.8933 120.957,85.56 121.5,85.5 Z"/></g>
<g><path style="opacity:1" fill="#0d0d0d" d="M -0.5,91.5 C 20.8333,91.5 42.1667,91.5 63.5,91.5C 47.5342,93.4851 31.2009,94.1518 14.5,93.5C 9.5,93.5 4.5,93.5 -0.5,93.5C -0.5,92.8333 -0.5,92.1667 -0.5,91.5 Z"/></g>
<g><path style="opacity:1" fill="#010101" d="M 101.5,91.5 C 95.588,93.4563 89.2547,94.1229 82.5,93.5C 88.412,91.5437 94.7453,90.8771 101.5,91.5 Z"/></g>
<g><path style="opacity:1" fill="#888888" d="M 183.5,91.5 C 178.833,92.1667 174.167,92.8333 169.5,93.5C 159.81,93.8318 150.144,93.4984 140.5,92.5C 154.818,91.5007 169.151,91.1674 183.5,91.5 Z"/></g>
<g><path style="opacity:1" fill="#0d0d0d" d="M 183.5,91.5 C 202.833,91.5 222.167,91.5 241.5,91.5C 241.5,92.1667 241.5,92.8333 241.5,93.5C 217.5,93.5 193.5,93.5 169.5,93.5C 174.167,92.8333 178.833,92.1667 183.5,91.5 Z"/></g>
<g><path style="opacity:1" fill="#444444" d="M 63.5,91.5 C 64.404,92.209 64.7373,93.209 64.5,94.5C 47.6583,94.8298 30.9916,94.4965 14.5,93.5C 31.2009,94.1518 47.5342,93.4851 63.5,91.5 Z"/></g>
<g><path style="opacity:1" fill="#646464" d="M 101.5,91.5 C 102.404,92.209 102.737,93.209 102.5,94.5C 95.6457,94.824 88.979,94.4907 82.5,93.5C 89.2547,94.1229 95.588,93.4563 101.5,91.5 Z"/></g>
<g><path style="opacity:1" fill="#747474" d="M -0.5,98.5 C -0.5,98.1667 -0.5,97.8333 -0.5,97.5C 18.8333,97.5 38.1667,97.5 57.5,97.5C 57.5,98.8333 57.5,100.167 57.5,101.5C 41.3246,101.83 25.3246,101.496 9.5,100.5C 25.1808,100.833 40.8475,100.499 56.5,99.5C 37.5117,98.5004 18.5117,98.1671 -0.5,98.5 Z"/></g>
<g><path style="opacity:1" fill="#0b0b0b" d="M -0.5,98.5 C 18.5117,98.1671 37.5117,98.5004 56.5,99.5C 40.8475,100.499 25.1808,100.833 9.5,100.5C 6.16667,100.5 2.83333,100.5 -0.5,100.5C -0.5,99.8333 -0.5,99.1667 -0.5,98.5 Z"/></g>
<g><path style="opacity:1" fill="#040404" d="M 108.5,98.5 C 108.5,99.1667 108.5,99.8333 108.5,100.5C 77.8333,99.8333 77.8333,99.1667 108.5,98.5 Z"/></g>
<g><path style="opacity:1" fill="#1b1b1b" d="M 241.5,98.5 C 241.5,99.1667 241.5,99.8333 241.5,100.5C 130.833,99.8333 130.833,99.1667 241.5,98.5 Z"/></g>
<g><path style="opacity:1" fill="#8a8a8a" d="M 108.5,98.5 C 77.8333,99.1667 77.8333,99.8333 108.5,100.5C 100.684,101.492 92.6841,101.826 84.5,101.5C 84.5,100.167 84.5,98.8333 84.5,97.5C 92.6841,97.1743 100.684,97.5076 108.5,98.5 Z"/></g>
<g><path style="opacity:1" fill="#131313" d="M -0.5,104.5 C 15.1667,104.5 30.8333,104.5 46.5,104.5C 46.5,105.5 46.5,106.5 46.5,107.5C 30.8333,107.5 15.1667,107.5 -0.5,107.5C -0.5,106.5 -0.5,105.5 -0.5,104.5 Z"/></g>
<g><path style="opacity:1" fill="#050505" d="M 112.5,104.5 C 114.631,105.314 116.964,105.814 119.5,106C 117.292,106.191 115.292,106.691 113.5,107.5C 101.833,107.5 90.1667,107.5 78.5,107.5C 78.5,106.5 78.5,105.5 78.5,104.5C 89.8333,104.5 101.167,104.5 112.5,104.5 Z"/></g>
<g><path style="opacity:1" fill="#131313" d="M 241.5,104.5 C 241.5,105.5 241.5,106.5 241.5,107.5C 221.5,107.5 201.5,107.5 181.5,107.5C 181.5,106.5 181.5,105.5 181.5,104.5C 201.5,104.5 221.5,104.5 241.5,104.5 Z"/></g>
<g><path style="opacity:1" fill="#747474" d="M 112.5,104.5 C 115.167,104.5 117.833,104.5 120.5,104.5C 120.5,105.5 120.5,106.5 120.5,107.5C 118.167,107.5 115.833,107.5 113.5,107.5C 115.292,106.691 117.292,106.191 119.5,106C 116.964,105.814 114.631,105.314 112.5,104.5 Z"/></g>
<g><path style="opacity:1" fill="#050505" d="M -0.5,111.5 C 36.8333,112.167 36.8333,112.833 -0.5,113.5C -0.5,112.833 -0.5,112.167 -0.5,111.5 Z"/></g>
<g><path style="opacity:1" fill="#000000" d="M 103.5,111.5 C 106.5,111.5 109.5,111.5 112.5,111.5C 117.833,112.167 123.167,112.833 128.5,113.5C 123.167,113.5 117.833,113.5 112.5,113.5C 98.8171,113.833 85.1504,113.499 71.5,112.5C 82.1459,111.501 92.8126,111.168 103.5,111.5 Z"/></g>
<g><path style="opacity:1" fill="#494949" d="M 112.5,111.5 C 118.206,111.171 123.872,111.505 129.5,112.5C 129.376,113.107 129.043,113.44 128.5,113.5C 123.167,112.833 117.833,112.167 112.5,111.5 Z"/></g>
<g><path style="opacity:1" fill="#0b0b0b" d="M 233.5,111.5 C 236.167,111.5 238.833,111.5 241.5,111.5C 241.5,112.167 241.5,112.833 241.5,113.5C 232.143,113.832 222.81,113.498 213.5,112.5C 220.134,111.503 226.8,111.17 233.5,111.5 Z"/></g>
<g><path style="opacity:1" fill="#676767" d="M -0.5,111.5 C -0.5,111.167 -0.5,110.833 -0.5,110.5C 9.16667,110.5 18.8333,110.5 28.5,110.5C 28.5,111.833 28.5,113.167 28.5,114.5C 18.8333,114.5 9.16667,114.5 -0.5,114.5C -0.5,114.167 -0.5,113.833 -0.5,113.5C 36.8333,112.833 36.8333,112.167 -0.5,111.5 Z"/></g>
<g><path style="opacity:1" fill="#474747" d="M 103.5,111.5 C 92.8126,111.168 82.1459,111.501 71.5,112.5C 85.1504,113.499 98.8171,113.833 112.5,113.5C 98.6766,114.496 84.6766,114.829 70.5,114.5C 70.5,113.167 70.5,111.833 70.5,110.5C 81.6794,110.172 92.6794,110.505 103.5,111.5 Z"/></g>
<g><path style="opacity:1" fill="#858585" d="M 233.5,111.5 C 226.8,111.17 220.134,111.503 213.5,112.5C 222.81,113.498 232.143,113.832 241.5,113.5C 241.5,113.833 241.5,114.167 241.5,114.5C 231.833,114.5 222.167,114.5 212.5,114.5C 212.5,113.167 212.5,111.833 212.5,110.5C 219.687,110.175 226.687,110.509 233.5,111.5 Z"/></g>
<g><path style="opacity:1" fill="#808080" d="M 68.5,144.5 C 67.8333,144.5 67.5,144.833 67.5,145.5C 66.4415,144.4 65.6082,143.066 65,141.5C 64.6174,142.056 64.1174,142.389 63.5,142.5C 64.4675,139.555 64.6342,136.555 64,133.5C 63.79,135.058 63.29,136.391 62.5,137.5C 62.5,135.833 62.5,134.167 62.5,132.5C 63.5,132.5 64.5,132.5 65.5,132.5C 65.0321,136.942 66.0321,140.942 68.5,144.5 Z"/></g>
<g><path style="opacity:1" fill="#b6b6b6" d="M 119.5,133.5 C 122.5,133.5 125.5,133.5 128.5,133.5C 128.802,136.059 128.468,138.393 127.5,140.5C 127.662,138.473 127.495,136.473 127,134.5C 126.506,136.134 126.34,137.801 126.5,139.5C 125.167,139.5 123.833,139.5 122.5,139.5C 122.784,137.585 122.451,135.919 121.5,134.5C 117.949,137.225 117.283,136.892 119.5,133.5 Z"/></g>
<g><path style="opacity:1" fill="#585858" d="M 29.5,132.5 C 30.9953,132.415 31.9953,133.081 32.5,134.5C 30.6043,135.639 29.6043,134.973 29.5,132.5 Z"/></g>
<g><path style="opacity:1" fill="#606060" d="M 36.5,135.5 C 36.1667,135.5 35.8333,135.5 35.5,135.5C 35.281,134.325 35.6143,133.325 36.5,132.5C 39.2369,134.102 42.2369,134.936 45.5,135C 42.5184,135.498 39.5184,135.665 36.5,135.5 Z"/></g>
<g><path style="opacity:1" fill="#bbbbbb" d="M 93.5,136.5 C 92.8333,135.167 92.1667,135.167 91.5,136.5C 89.076,136.808 86.7427,136.474 84.5,135.5C 89.8333,134.167 95.1667,134.167 100.5,135.5C 98.2573,136.474 95.924,136.808 93.5,136.5 Z"/></g>
<g><path style="opacity:1" fill="#717171" d="M 177.5,144.5 C 177.847,141.659 177.513,139.659 176.5,138.5C 175.015,139.935 173.682,139.768 172.5,138C 175.937,137.351 176.104,136.851 173,136.5C 171.091,137.156 169.258,137.656 167.5,138C 169.669,135.797 172.335,134.964 175.5,135.5C 175.667,132.043 176.667,131.71 178.5,134.5C 180.423,135.308 182.423,135.808 184.5,136C 184,136.5 183.5,137 183,137.5C 181.644,136.62 180.144,136.286 178.5,136.5C 178.5,138.833 178.5,141.167 178.5,143.5C 180.674,143.08 182.674,143.08 184.5,143.5C 182.257,144.474 179.924,144.808 177.5,144.5 Z"/></g>
<g><path style="opacity:1" fill="#787878" d="M 119.5,133.5 C 117.283,136.892 117.949,137.225 121.5,134.5C 121.5,136.5 121.5,138.5 121.5,140.5C 120.849,139.909 120.182,139.243 119.5,138.5C 119.089,139.262 118.923,140.262 119,141.5C 117.644,140.62 116.144,140.286 114.5,140.5C 114.678,139.305 115.011,138.138 115.5,137C 114.99,135.174 114.156,135.007 113,136.5C 112.333,135.5 112.333,134.5 113,133.5C 114.995,134.166 117.162,134.166 119.5,133.5 Z"/></g>
<g><path style="opacity:1" fill="#535353" d="M 142.5,132.5 C 144.927,133.279 144.927,134.446 142.5,136C 143.833,136.667 145.167,136.667 146.5,136C 145.66,134.334 146.16,134.167 148,135.5C 148.667,136.5 148.667,137.5 148,138.5C 145.26,137.718 142.426,137.218 139.5,137C 141.141,135.871 142.141,134.371 142.5,132.5 Z"/></g>
<g><path style="opacity:1" fill="#515151" d="M 208.5,135.5 C 206.629,135.859 205.129,136.859 204,138.5C 204.595,136.65 205.095,134.65 205.5,132.5C 206.5,132.5 207.5,132.5 208.5,132.5C 208.5,133.5 208.5,134.5 208.5,135.5 Z"/></g>
<g><path style="opacity:1" fill="#373737" d="M 93.5,136.5 C 93.5,140.167 93.5,143.833 93.5,147.5C 95.8568,147.337 98.1902,147.503 100.5,148C 97.5184,148.498 94.5184,148.665 91.5,148.5C 91.5,144.5 91.5,140.5 91.5,136.5C 92.1667,135.167 92.8333,135.167 93.5,136.5 Z"/></g>
<g><path style="opacity:1" fill="#383838" d="M 200.5,133.5 C 202.347,138.641 202.681,143.974 201.5,149.5C 200.448,149.649 199.448,149.483 198.5,149C 199.944,147.874 200.61,146.374 200.5,144.5C 199.332,140.837 199.332,137.17 200.5,133.5 Z"/></g>
<g><path style="opacity:1" fill="#767676" d="M 230.5,139.5 C 230.167,139.5 229.833,139.5 229.5,139.5C 227.631,138.835 225.631,138.169 223.5,137.5C 223.977,136.522 224.643,135.689 225.5,135C 228.11,134.853 230.444,134.019 232.5,132.5C 234.965,133.922 237.631,134.922 240.5,135.5C 240.023,136.478 239.357,137.311 238.5,138C 235.793,138.395 233.127,138.895 230.5,139.5 Z"/></g>
<g><path style="opacity:1" fill="#e6e6e6" d="M 226.5,135.5 C 230.514,135.334 234.514,135.501 238.5,136C 236.091,136.935 233.591,137.435 231,137.5C 229.014,137.431 227.514,136.765 226.5,135.5 Z"/></g>
<g><path style="opacity:1" fill="#343434" d="M 35.5,135.5 C 35.6775,136.695 36.0109,137.862 36.5,139C 36.2869,142.026 35.2869,144.526 33.5,146.5C 34.825,143.531 34.825,140.531 33.5,137.5C 33.8555,136.478 34.5222,135.811 35.5,135.5 Z"/></g>
<g><path style="opacity:1" fill="#3d3d3d" d="M 63.5,142.5 C 62.1768,145.999 59.8435,148.165 56.5,149C 60.7616,146.309 62.7616,142.476 62.5,137.5C 63.29,136.391 63.79,135.058 64,133.5C 64.6342,136.555 64.4675,139.555 63.5,142.5 Z"/></g>
<g><path style="opacity:1" fill="#404040" d="M 149.5,132.5 C 150.931,132.881 151.764,133.881 152,135.5C 153.049,134.483 154.216,134.316 155.5,135C 150.229,137.07 150.563,138.57 156.5,139.5C 154.257,140.474 151.924,140.808 149.5,140.5C 149.5,137.833 149.5,135.167 149.5,132.5 Z"/></g>
<g><path style="opacity:1" fill="#656565" d="M 9.5,140.5 C 9.5,140.167 9.5,139.833 9.5,139.5C 11.2624,139.643 12.9291,139.309 14.5,138.5C 15.3081,138.808 15.9747,139.308 16.5,140C 14.1902,140.497 11.8568,140.663 9.5,140.5 Z"/></g>
<g><path style="opacity:1" fill="#3b3b3b" d="M 121.5,134.5 C 122.451,135.919 122.784,137.585 122.5,139.5C 123.833,139.5 125.167,139.5 126.5,139.5C 126.34,137.801 126.506,136.134 127,134.5C 127.495,136.473 127.662,138.473 127.5,140.5C 127.5,141.167 127.167,141.5 126.5,141.5C 124.745,140.76 123.078,140.426 121.5,140.5C 121.5,138.5 121.5,136.5 121.5,134.5 Z"/></g>
<g><path style="opacity:1" fill="#6c6c6c" d="M 208.5,135.5 C 209.962,136.458 211.295,137.624 212.5,139C 209.634,140.457 206.634,140.79 203.5,140C 205.167,139.667 206.833,139.333 208.5,139C 209.171,138.014 209.171,136.847 208.5,135.5 Z"/></g>
<g><path style="opacity:1" fill="#030303" d="M 9.5,139.5 C 9.5,139.833 9.5,140.167 9.5,140.5C 8.6829,142.969 8.1829,145.635 8,148.5C 7.33333,143.5 7.33333,138.5 8,133.5C 8.19088,135.708 8.69088,137.708 9.5,139.5 Z"/></g>
<g><path style="opacity:1" fill="#3f3f3f" d="M 140.5,139.5 C 142.833,139.5 145.167,139.5 147.5,139.5C 147.82,142.898 147.487,146.232 146.5,149.5C 145.571,148.311 145.238,146.978 145.5,145.5C 144.5,145.5 143.5,145.5 142.5,145.5C 142.762,146.978 142.429,148.311 141.5,149.5C 140.513,146.232 140.18,142.898 140.5,139.5 Z"/></g>
<g><path style="opacity:1" fill="#141414" d="M 177.5,144.5 C 177.5,144.833 177.5,145.167 177.5,145.5C 177.167,145.5 176.833,145.5 176.5,145.5C 175.662,145.158 175.328,144.492 175.5,143.5C 176.451,142.081 176.784,140.415 176.5,138.5C 177.513,139.659 177.847,141.659 177.5,144.5 Z"/></g>
<g><path style="opacity:1" fill="#7f7f7f" d="M 9.5,139.5 C 8.69088,137.708 8.19088,135.708 8,133.5C 7.33333,138.5 7.33333,143.5 8,148.5C 8.1829,145.635 8.6829,142.969 9.5,140.5C 9.5,143.167 9.5,145.833 9.5,148.5C 15.994,149.133 12.6607,149.467 -0.5,149.5C -0.5,149.167 -0.5,148.833 -0.5,148.5C 1.83333,148.5 4.16667,148.5 6.5,148.5C 6.5,143.167 6.5,137.833 6.5,132.5C 7.5,132.5 8.5,132.5 9.5,132.5C 9.5,134.833 9.5,137.167 9.5,139.5 Z"/></g>
<g><path style="opacity:1" fill="#d2d2d2" d="M 142.5,140.5 C 143.5,140.5 144.5,140.5 145.5,140.5C 145.5,141.833 145.5,143.167 145.5,144.5C 144.5,144.5 143.5,144.5 142.5,144.5C 142.5,143.167 142.5,141.833 142.5,140.5 Z"/></g>
<g><path style="opacity:1" fill="#3f3f3f" d="M 149.5,141.5 C 150.931,141.881 151.764,142.881 152,144.5C 157.589,142.045 157.755,142.378 152.5,145.5C 151.614,146.325 151.281,147.325 151.5,148.5C 153.492,148.672 155.158,148.005 156.5,146.5C 157.386,147.325 157.719,148.325 157.5,149.5C 154.833,149.5 152.167,149.5 149.5,149.5C 149.5,146.833 149.5,144.167 149.5,141.5 Z"/></g>
<g><path style="opacity:1" fill="#727272" d="M 196.5,136.5 C 197.693,136.97 198.36,137.97 198.5,139.5C 198.167,140.5 197.833,141.5 197.5,142.5C 196.534,140.604 196.201,138.604 196.5,136.5 Z"/></g>
<g><path style="opacity:1" fill="#3c3c3c" d="M 42.5,136.5 C 43.2066,138.231 44.2066,139.897 45.5,141.5C 42.9422,143.12 42.9422,144.62 45.5,146C 43.7604,147.694 41.7604,148.861 39.5,149.5C 41.507,145.523 42.507,141.19 42.5,136.5 Z"/></g>
<g><path style="opacity:1" fill="#404040" d="M 114.5,142.5 C 116.344,144.279 117.01,146.612 116.5,149.5C 114.656,147.721 113.99,145.388 114.5,142.5 Z"/></g>
<g><path style="opacity:1" fill="#747474" d="M 175.5,143.5 C 175.328,144.492 175.662,145.158 176.5,145.5C 174.282,148.609 171.282,150.109 167.5,150C 170.154,148.955 172.488,147.455 174.5,145.5C 172.577,144.692 170.577,144.192 168.5,144C 169.938,143.781 171.271,143.281 172.5,142.5C 172.291,141.914 171.957,141.414 171.5,141C 172.894,141.499 174.228,142.333 175.5,143.5 Z"/></g>
<g><path style="opacity:1" fill="#3a3a3a" d="M 28.5,138.5 C 29.8917,137.478 31.225,137.811 32.5,139.5C 30.7192,142.779 30.0525,146.112 30.5,149.5C 29.7564,148.009 29.0897,146.509 28.5,145C 29.2598,143.559 29.9264,142.059 30.5,140.5C 30.1445,139.478 29.4778,138.811 28.5,138.5 Z"/></g>
<g><path style="opacity:1" fill="#cacaca" d="M 121.5,140.5 C 123.078,140.426 124.745,140.76 126.5,141.5C 126.806,144.385 126.473,147.052 125.5,149.5C 124.833,140.167 124.167,140.167 123.5,149.5C 121.167,149.5 118.833,149.5 116.5,149.5C 117.01,146.612 116.344,144.279 114.5,142.5C 113.769,142.058 112.769,141.891 111.5,142C 112.244,140.961 113.244,140.461 114.5,140.5C 116.144,140.286 117.644,140.62 119,141.5C 118.923,140.262 119.089,139.262 119.5,138.5C 120.182,139.243 120.849,139.909 121.5,140.5 Z"/></g>
<g><path style="opacity:1" fill="#b8b8b8" d="M 35.5,135.5 C 35.8333,135.5 36.1667,135.5 36.5,135.5C 38.2646,136.461 40.2646,136.795 42.5,136.5C 42.507,141.19 41.507,145.523 39.5,149.5C 37.6391,148.158 35.6391,147.158 33.5,146.5C 35.2869,144.526 36.2869,142.026 36.5,139C 36.0109,137.862 35.6775,136.695 35.5,135.5 Z"/></g>
<g><path style="opacity:1" fill="#0b0b0b" d="M 68.5,144.5 C 69.4787,146.145 70.812,147.479 72.5,148.5C 70.2671,149.016 68.6004,148.016 67.5,145.5C 67.5,144.833 67.8333,144.5 68.5,144.5 Z"/></g>
<g><path style="opacity:1" fill="#2f2f2f" d="M 125.5,149.5 C 124.833,149.5 124.167,149.5 123.5,149.5C 124.167,140.167 124.833,140.167 125.5,149.5 Z"/></g>
<g><path style="opacity:1" fill="#484848" d="M 177.5,145.5 C 179.308,145.491 180.975,145.991 182.5,147C 183.451,147.718 183.617,148.551 183,149.5C 180.985,148.303 179.151,146.97 177.5,145.5 Z"/></g>
<g><path style="opacity:1" fill="#3e3e3e" d="M 195.5,144.5 C 198.797,144.329 199.131,144.995 196.5,146.5C 195.702,146.043 195.369,145.376 195.5,144.5 Z"/></g>
<g><path style="opacity:1" fill="#5e5e5e" d="M 203.5,142.5 C 205.3,143.895 205.634,145.561 204.5,147.5C 203.548,145.955 203.215,144.288 203.5,142.5 Z"/></g>
<g><path style="opacity:1" fill="#5d5d5d" d="M 209.5,141.5 C 210.376,141.369 211.043,141.702 211.5,142.5C 210.452,144.456 209.952,146.456 210,148.5C 211.297,147.216 212.464,147.383 213.5,149C 209.833,149.667 206.167,149.667 202.5,149C 204.577,148.808 206.577,148.308 208.5,147.5C 206.816,146.146 206.316,144.479 207,142.5C 208.941,146.554 209.775,146.22 209.5,141.5 Z"/></g>
<g><path style="opacity:1" fill="#575757" d="M 229.5,139.5 C 229.833,139.5 230.167,139.5 230.5,139.5C 229.357,141.101 230.024,141.767 232.5,141.5C 235.363,138.598 237.696,138.932 239.5,142.5C 239.167,142.833 238.833,143.167 238.5,143.5C 236.929,142.691 235.262,142.357 233.5,142.5C 233.5,143.5 233.5,144.5 233.5,145.5C 240.062,144.753 240.062,145.419 233.5,147.5C 235.926,148.168 238.259,148.502 240.5,148.5C 227.776,149.624 224.776,149.624 231.5,148.5C 231.5,146.5 231.5,144.5 231.5,142.5C 226.223,143.083 225.557,142.083 229.5,139.5 Z"/></g>
<g><path style="opacity:1" fill="#7d7d7d" d="M 79.5,157.5 C 80.9778,157.238 82.3112,157.571 83.5,158.5C 82.3966,158.998 81.3966,159.331 80.5,159.5C 81.325,160.386 82.325,160.719 83.5,160.5C 83.6621,162.527 83.4955,164.527 83,166.5C 82.5065,164.866 82.3398,163.199 82.5,161.5C 81.5,161.5 80.5,161.5 79.5,161.5C 78.4391,166.425 78.4391,165.091 79.5,157.5 Z"/></g>
<g><path style="opacity:1" fill="#434343" d="M 61.5,163.5 C 60.7281,162.306 59.7281,161.306 58.5,160.5C 58.3691,159.624 58.7025,158.957 59.5,158.5C 60.9501,159.85 61.6168,161.516 61.5,163.5 Z"/></g>
<g><path style="opacity:1" fill="#969696" d="M 65.5,160.5 C 67.1667,160.5 68.8333,160.5 70.5,160.5C 70.5,162.5 70.5,164.5 70.5,166.5C 69.8386,165.282 69.1719,163.949 68.5,162.5C 67.5713,163.689 67.238,165.022 67.5,166.5C 65.6921,165.082 65.0254,163.082 65.5,160.5 Z"/></g>
<g><path style="opacity:1" fill="#777777" d="M 102.5,157.5 C 103.765,158.514 104.431,160.014 104.5,162C 104.167,163.5 103.833,165 103.5,166.5C 102.516,163.572 102.183,160.572 102.5,157.5 Z"/></g>
<g><path style="opacity:1" fill="#979797" d="M 179.5,157.5 C 180.5,157.5 181.5,157.5 182.5,157.5C 182.5,160.167 182.5,162.833 182.5,165.5C 184.655,165.628 186.655,165.128 188.5,164C 189.641,163.259 189.641,162.425 188.5,161.5C 192.928,159.948 194.595,161.614 193.5,166.5C 188.982,165.963 184.315,165.963 179.5,166.5C 179.5,163.5 179.5,160.5 179.5,157.5 Z"/></g>
<g><path style="opacity:1" fill="#333333" d="M 0.5,158.5 C 1.48124,160.309 2.98124,161.643 5,162.5C 5.66667,163.5 5.66667,164.5 5,165.5C 4.33333,163.5 3,162.167 1,161.5C 0.517215,160.552 0.350549,159.552 0.5,158.5 Z"/></g>
<g><path style="opacity:1" fill="#3a3a3a" d="M 70.5,166.5 C 70.5,164.5 70.5,162.5 70.5,160.5C 71.3363,161.589 72.003,163.422 72.5,166C 71.9056,166.464 71.2389,166.631 70.5,166.5 Z"/></g>
<g><path style="opacity:1" fill="#7f7f7f" d="M 86.5,160.5 C 87.9778,160.238 89.3112,160.571 90.5,161.5C 89.7261,162.711 88.8928,162.711 88,161.5C 85.9785,163.651 86.4785,165.151 89.5,166C 85.5369,166.118 84.5369,164.284 86.5,160.5 Z"/></g>
<g><path style="opacity:1" fill="#818181" d="M 219.5,159.5 C 221.141,161.203 222.141,163.37 222.5,166C 221.552,166.483 220.552,166.649 219.5,166.5C 219.5,164.167 219.5,161.833 219.5,159.5 Z"/></g>
<g><path style="opacity:1" fill="#737373" d="M 7.5,157.5 C 8.76468,158.514 9.43135,160.014 9.5,162C 9.16667,163.5 8.83333,165 8.5,166.5C 7.51592,163.572 7.18259,160.572 7.5,157.5 Z"/></g>
<g><path style="opacity:1" fill="#727272" d="M 10.5,161.5 C 11.1894,160.226 12.0228,160.226 13,161.5C 13.7975,163.259 13.6309,164.926 12.5,166.5C 11.8302,164.709 11.1635,163.042 10.5,161.5 Z"/></g>
<g><path style="opacity:1" fill="#6c6c6c" d="M 21.5,160.5 C 26.2411,160.161 27.5744,162.161 25.5,166.5C 24.5165,159.972 23.3498,159.972 22,166.5C 21.5045,164.527 21.3379,162.527 21.5,160.5 Z"/></g>
<g><path style="opacity:1" fill="#8b8b8b" d="M 121.5,159.5 C 122.725,160.152 123.392,161.319 123.5,163C 123.167,164.167 122.833,165.333 122.5,166.5C 121.526,164.257 121.192,161.924 121.5,159.5 Z"/></g>
<g><path style="opacity:1" fill="#909090" d="M 127.5,161.5 C 128.743,160.263 129.743,160.596 130.5,162.5C 129.167,163.167 127.833,163.833 126.5,164.5C 127.376,165.251 128.376,165.751 129.5,166C 124.818,166.995 123.651,165.495 126,161.5C 126.718,162.451 127.551,162.617 128.5,162C 128.272,161.601 127.938,161.435 127.5,161.5 Z"/></g>
<g><path style="opacity:1" fill="#8e8e8e" d="M 150.5,160.5 C 156.401,160.94 156.734,162.273 151.5,164.5C 152.376,165.251 153.376,165.751 154.5,166C 150.135,166.446 148.802,164.613 150.5,160.5 Z"/></g>
<g><path style="opacity:1" fill="#818181" d="M 156.5,160.5 C 161.895,159.555 163.561,161.555 161.5,166.5C 160.167,159.833 158.833,159.833 157.5,166.5C 156.534,164.604 156.201,162.604 156.5,160.5 Z"/></g>
<g><path style="opacity:1" fill="#777777" d="M 194.5,157.5 C 196.048,157.821 196.715,158.821 196.5,160.5C 200.071,160.408 201.238,162.074 200,165.5C 198.301,166.406 196.467,166.739 194.5,166.5C 194.5,163.5 194.5,160.5 194.5,157.5 Z"/></g>
<g><path style="opacity:1" fill="#f6f6f6" d="M 196.5,161.5 C 197.586,161.62 198.253,162.287 198.5,163.5C 198.167,164.167 197.833,164.833 197.5,165.5C 196.571,164.311 196.238,162.978 196.5,161.5 Z"/></g>
<g><path style="opacity:1" fill="#9e9e9e" d="M 208.5,160.5 C 211.5,160.5 214.5,160.5 217.5,160.5C 217.261,162.467 217.594,164.301 218.5,166C 216.866,166.494 215.199,166.66 213.5,166.5C 213.33,165.178 213.663,164.011 214.5,163C 213.207,162.51 211.873,162.343 210.5,162.5C 210.762,163.978 210.429,165.311 209.5,166.5C 208.534,164.604 208.201,162.604 208.5,160.5 Z"/></g>
<g><path style="opacity:1" fill="#727272" d="M 230.5,160.5 C 232.833,160.5 235.167,160.5 237.5,160.5C 237.626,162.2 238.293,163.7 239.5,165C 239.21,167.7 237.877,169.033 235.5,169C 237.994,166.756 237.994,164.423 235.5,162C 234.552,161.517 233.552,161.351 232.5,161.5C 232.785,163.288 232.452,164.955 231.5,166.5C 230.534,164.604 230.201,162.604 230.5,160.5 Z"/></g>
<g><path style="opacity:1" fill="#717171" d="M 114.5,160.5 C 116.167,160.5 117.833,160.5 119.5,160.5C 119.662,162.527 119.495,164.527 119,166.5C 117.65,159.972 116.483,159.972 115.5,166.5C 114.534,164.604 114.201,162.604 114.5,160.5 Z"/></g>
<g><path style="opacity:1" fill="#7d7d7d" d="M 170.5,160.5 C 171.833,160.5 173.167,160.5 174.5,160.5C 174.5,161.5 174.5,162.5 174.5,163.5C 169.407,163.612 169.407,164.445 174.5,166C 169.728,166.81 168.395,164.977 170.5,160.5 Z"/></g>
<g><path style="opacity:1" fill="#757575" d="M 224.5,160.5 C 229.453,160.322 230.619,162.322 228,166.5C 227.459,160.337 226.125,160.003 224,165.5C 223.36,163.735 223.527,162.068 224.5,160.5 Z"/></g>
<g><path style="opacity:1" fill="#767676" d="M 17.5,160.5 C 19.2798,161.99 19.9465,163.99 19.5,166.5C 17.712,166.785 16.0453,166.452 14.5,165.5C 15.4978,162.972 16.3311,162.972 17,165.5C 17.5,165 18,164.5 18.5,164C 17.6634,162.989 17.33,161.822 17.5,160.5 Z"/></g>
<g><path style="opacity:1" fill="#868686" d="M 96.5,160.5 C 97.8333,160.5 99.1667,160.5 100.5,160.5C 100.5,162.5 100.5,164.5 100.5,166.5C 98.712,166.785 97.0453,166.452 95.5,165.5C 96.4978,162.972 97.3311,162.972 98,165.5C 98.6667,164.167 98.6667,162.833 98,161.5C 95.8215,162.84 95.3215,162.507 96.5,160.5 Z"/></g>
<g><path style="opacity:1" fill="#969696" d="M 164.5,160.5 C 165.978,160.238 167.311,160.571 168.5,161.5C 167.726,162.711 166.893,162.711 166,161.5C 165.308,162.025 164.808,162.692 164.5,163.5C 165.833,164.167 167.167,164.833 168.5,165.5C 163.733,166.899 162.4,165.232 164.5,160.5 Z"/></g>
<g><path style="opacity:1" fill="#989898" d="M 202.5,160.5 C 206.677,159.842 208.177,161.508 207,165.5C 205.333,168.167 203.667,168.167 202,165.5C 201.36,163.735 201.527,162.068 202.5,160.5 Z"/></g>
<g><path style="opacity:1" fill="#fbfbfb" d="M 203.5,161.5 C 204.586,161.62 205.253,162.287 205.5,163.5C 205.167,164.167 204.833,164.833 204.5,165.5C 203.571,164.311 203.238,162.978 203.5,161.5 Z"/></g>
<g><path style="opacity:1" fill="#cccccc" d="M 58.5,160.5 C 59.7281,161.306 60.7281,162.306 61.5,163.5C 61.281,164.675 61.6143,165.675 62.5,166.5C 63.1067,166.376 63.44,166.043 63.5,165.5C 64.1667,163.833 64.8333,162.167 65.5,160.5C 65.0254,163.082 65.6921,165.082 67.5,166.5C 65.3926,167.468 63.0593,167.802 60.5,167.5C 60.5,166.5 60.5,165.5 60.5,164.5C 58.857,164.48 57.5237,165.147 56.5,166.5C 56.1667,166.167 55.8333,165.833 55.5,165.5C 55.9572,163.402 56.9572,161.736 58.5,160.5 Z"/></g>
<g><path style="opacity:1" fill="#2a2a2a" d="M 61.5,163.5 C 62.1667,164.167 62.8333,164.833 63.5,165.5C 63.44,166.043 63.1067,166.376 62.5,166.5C 61.6143,165.675 61.281,164.675 61.5,163.5 Z"/></g>
<g><path style="opacity:1" fill="#a6a6a6" d="M 28.5,160.5 C 30.1667,160.5 31.8333,160.5 33.5,160.5C 33.1038,164.956 32.1038,165.29 30.5,161.5C 30.1667,161.833 29.8333,162.167 29.5,162.5C 30.7956,164.579 32.4622,166.246 34.5,167.5C 32.3929,169.949 30.0595,170.116 27.5,168C 28.435,165.619 28.7683,163.119 28.5,160.5 Z"/></g>
<g><path style="opacity:1" fill="#adadad" d="M 139.5,165.5 C 140.167,166.833 140.833,166.833 141.5,165.5C 142.117,165.611 142.617,165.944 143,166.5C 142.408,162.102 144.241,160.102 148.5,160.5C 148.773,162.451 148.107,163.951 146.5,165C 149.124,165.576 149.791,166.91 148.5,169C 144.352,168.102 140.019,167.602 135.5,167.5C 135.18,164.102 135.513,160.768 136.5,157.5C 136.92,160.616 137.92,163.283 139.5,165.5 Z"/></g>
<g><path style="opacity:1" fill="#585858" d="M 141.5,165.5 C 140.833,166.833 140.167,166.833 139.5,165.5C 140.167,158.833 140.833,158.833 141.5,165.5 Z"/></g>
</svg>
