<?xml version="1.0" standalone="no"?>
<!DOCTYPE svg PUBLIC "-//W3C//DTD SVG 20010904//EN"
 "http://www.w3.org/TR/2001/REC-SVG-20010904/DTD/svg10.dtd">
<svg version="1.0" xmlns="http://www.w3.org/2000/svg"
 width="700.000000pt" height="214.000000pt" viewBox="0 0 700.000000 214.000000"
 preserveAspectRatio="xMidYMid meet">

<g transform="translate(0.000000,214.000000) scale(0.100000,-0.100000)"
fill="#000000" stroke="none">
<path d="M4520 1974 c11 -32 20 -60 20 -63 0 -3 -126 -5 -280 -3 l-280 3 0
-56 0 -55 666 0 665 0 -3 53 -3 52 -271 3 -270 2 -21 58 -20 57 -111 3 -111 3
19 -57z"/>
<path d="M5601 2008 c0 -7 19 -67 42 -133 l42 -120 108 -3 c59 -1 107 1 107 5
0 4 -19 65 -42 135 l-42 128 -108 0 c-80 0 -108 -3 -107 -12z"/>
<path d="M6032 1949 l3 -50 283 1 c223 0 282 -2 282 -12 0 -7 -23 -82 -51
-165 l-51 -153 -231 -2 -232 -3 -3 -52 -3 -53 340 0 341 0 0 -302 c-1 -219 -5
-325 -15 -383 -8 -44 -15 -83 -15 -87 0 -5 42 -8 94 -8 l94 0 13 33 c10 24 14
130 17 412 l3 380 -30 29 c-26 25 -42 30 -91 34 -33 2 -60 5 -60 6 0 1 23 69
50 151 28 82 50 162 50 178 0 20 -11 40 -34 63 l-34 34 -362 0 -361 0 3 -51z"/>
<path d="M2640 1894 c-351 -45 -553 -169 -1010 -619 -129 -128 -261 -251 -292
-274 -32 -23 -58 -44 -58 -48 0 -3 10 2 23 13 l22 18 -20 -22 c-40 -43 -223
-173 -329 -234 -169 -95 -317 -126 -462 -95 -117 25 -245 104 -288 178 -16 27
-10 23 37 -22 131 -129 297 -174 494 -133 70 14 150 46 163 64 3 3 12 10 20
14 36 17 61 34 60 41 -1 9 83 54 91 49 4 -2 9 3 13 11 3 8 10 15 16 15 12 0
150 89 150 96 0 6 -4 4 -75 -42 -69 -43 -179 -97 -245 -120 -42 -15 -82 -19
-175 -18 -107 0 -126 3 -175 26 -76 35 -150 105 -191 180 -33 60 -34 67 -34
168 0 95 3 110 28 163 39 79 121 160 197 196 100 48 257 62 400 36 33 -6 34
-6 11 7 -25 14 -38 48 -18 48 7 0 5 5 -3 10 -12 8 -10 10 10 10 l25 1 -25 11
c-14 7 -82 12 -155 12 -154 1 -206 -15 -313 -96 -64 -48 -66 -49 -32 -12 32
34 32 36 8 21 -16 -10 -28 -13 -28 -8 0 5 6 11 13 14 8 3 6 10 -8 21 -11 8
-16 16 -12 16 5 0 1 8 -8 17 -16 15 -15 18 7 35 17 14 10 12 -27 -6 -27 -13
-77 -46 -110 -73 -214 -174 -318 -468 -256 -725 52 -218 202 -409 396 -504
113 -55 182 -73 320 -80 299 -17 578 77 880 298 89 65 257 215 297 266 44 56
354 369 328 332 -13 -19 -71 -84 -129 -145 l-106 -109 122 114 c266 249 386
319 551 320 205 0 359 -111 429 -311 25 -72 33 -173 21 -244 l-7 -40 10 35 c6
19 15 43 20 52 5 10 9 28 10 40 0 23 0 22 11 -2 6 -15 12 -20 15 -12 7 18 23
15 23 -5 0 -13 3 -14 8 -6 18 28 132 -85 132 -130 0 -9 7 -20 16 -25 15 -8 13
-16 -16 -68 -17 -33 -39 -68 -48 -78 -10 -11 -11 -16 -5 -12 41 23 161 235
178 311 l6 30 -14 -30 c-8 -16 -27 -60 -42 -97 -16 -38 -29 -68 -30 -68 -2 0
-6 7 -9 16 -3 8 -2 13 3 10 9 -6 37 59 47 112 4 17 10 32 15 32 5 0 9 12 10
28 0 15 3 21 6 15 23 -57 47 93 40 247 -6 132 -28 214 -88 331 -102 197 -300
354 -517 410 -75 20 -250 32 -322 23z m395 -389 c97 -20 208 -79 276 -145 31
-30 61 -64 67 -76 6 -12 -19 9 -56 45 -115 114 -251 170 -418 172 -63 1 -80 4
-59 9 49 12 115 11 190 -5z"/>
<path d="M4180 1722 c0 -5 11 -41 24 -80 l25 -72 -125 0 -124 0 0 -445 0 -445
95 0 95 0 0 390 0 390 65 0 c36 0 65 -4 65 -8 0 -5 -11 -41 -25 -81 l-24 -72
111 3 112 3 25 78 25 77 117 0 117 0 27 -80 27 -80 109 0 c60 0 109 1 109 3 0
2 -11 37 -25 77 -14 40 -25 75 -25 77 0 2 29 3 65 3 l65 0 0 -312 c0 -238 -4
-330 -15 -383 -8 -38 -15 -74 -15 -78 0 -4 44 -6 98 -5 l97 3 14 50 c10 36 15
143 18 391 4 293 3 345 -11 377 -20 49 -63 67 -161 67 -41 0 -75 4 -75 8 0 8
29 96 45 135 7 16 -1 17 -106 15 l-113 -3 -25 -78 -25 -77 -195 2 -195 3 -25
78 -25 77 -108 0 c-59 0 -108 -4 -108 -8z"/>
<path d="M5620 1561 c0 -5 18 -62 41 -127 22 -66 41 -132 41 -149 0 -16 -19
-153 -41 -304 -23 -150 -41 -280 -41 -287 0 -19 208 -20 215 -1 8 21 85 556
85 590 0 18 -19 89 -42 160 l-43 127 -107 0 c-60 0 -108 -4 -108 -9z"/>
<path d="M6115 1308 c-2 -13 -18 -115 -35 -228 -16 -113 -41 -240 -54 -283
l-24 -77 98 0 98 0 15 39 c27 66 45 150 72 336 14 99 28 192 31 208 l6 27
-101 0 c-96 0 -101 -1 -106 -22z"/>
<path d="M6393 1108 c-18 -123 -43 -260 -57 -305 l-24 -83 94 0 94 0 20 40
c27 53 43 129 74 345 15 99 29 190 31 203 5 22 4 22 -97 22 l-103 0 -32 -222z"/>
<path d="M4250 1010 l0 -210 390 0 390 0 0 210 0 210 -390 0 -390 0 0 -210z
m588 -2 l-3 -103 -192 -3 -193 -2 0 105 0 105 195 0 196 0 -3 -102z"/>
<path d="M3149 678 c-61 -130 -203 -222 -424 -273 l-30 -7 25 -10 25 -9 -25
-14 c-23 -13 -23 -14 -5 -15 33 0 132 28 178 51 65 34 128 84 179 146 46 55
114 170 106 179 -3 2 -15 -19 -29 -48z"/>
<path d="M5947 523 c-4 -3 -7 -19 -7 -34 0 -22 6 -30 25 -35 43 -11 73 34 43
64 -13 13 -50 16 -61 5z"/>
<path d="M5733 483 c-18 -3 -23 -11 -23 -34 0 -24 -4 -29 -26 -29 -23 0 -25
-3 -22 -32 2 -25 8 -34 25 -36 20 -3 21 -10 25 -101 3 -91 5 -100 28 -120 17
-14 39 -20 70 -21 56 0 73 10 68 41 -2 19 -10 25 -38 27 -19 2 -38 9 -42 15
-4 7 -8 46 -8 87 l0 75 42 0 c41 0 43 1 46 33 3 32 3 32 -42 32 -46 0 -46 0
-46 35 0 37 -4 38 -57 28z"/>
<path d="M4085 433 c-74 -15 -112 -59 -100 -114 8 -36 48 -63 116 -79 61 -15
81 -36 54 -57 -20 -14 -48 -14 -121 2 -26 6 -32 3 -42 -20 -7 -15 -11 -29 -10
-30 15 -12 81 -25 125 -25 86 0 133 34 133 95 0 53 -35 84 -110 100 -19 4 -45
14 -58 22 -50 31 18 56 96 34 30 -9 33 -7 47 19 15 28 14 29 -18 38 -45 14
-88 20 -112 15z"/>
<path d="M4397 427 c-133 -41 -154 -224 -35 -297 57 -35 169 -22 207 24 13 15
12 20 -6 37 -19 20 -22 20 -51 5 -52 -27 -96 -21 -128 17 l-27 32 122 3 121 3
0 27 c0 34 -31 102 -56 124 -10 9 -37 21 -59 27 -46 13 -39 13 -88 -2z m103
-77 c40 -40 27 -50 -61 -50 -86 0 -87 2 -46 48 26 28 79 30 107 2z"/>
<path d="M4780 433 c-14 -3 -30 -9 -37 -14 -7 -7 -14 -6 -18 1 -3 5 -24 10
-46 10 l-40 0 3 -157 3 -158 39 0 39 0 -2 106 c-2 125 5 139 73 139 32 0 48
-6 64 -23 20 -21 22 -34 22 -125 l0 -102 41 0 41 0 -4 124 c-3 117 -5 126 -28
151 -14 15 -32 30 -40 35 -22 11 -81 18 -110 13z"/>
<path d="M5092 430 c-50 -12 -82 -46 -82 -90 0 -49 33 -78 112 -99 45 -12 64
-22 66 -35 7 -36 -50 -47 -119 -22 -34 12 -36 12 -52 -16 l-17 -29 35 -15 c19
-8 64 -14 100 -14 57 0 68 3 97 29 63 57 33 137 -60 161 -71 18 -92 28 -92 45
0 26 75 32 131 10 10 -4 19 3 27 20 16 34 9 43 -36 50 -20 3 -46 8 -57 9 -11
2 -35 0 -53 -4z"/>
<path d="M5420 428 c-139 -38 -158 -237 -29 -303 55 -29 163 -13 198 29 13 15
12 20 -7 38 -20 20 -22 20 -46 5 -29 -20 -94 -22 -117 -4 -9 7 -21 22 -28 35
l-12 22 121 0 120 0 0 25 c0 34 -26 94 -52 122 -11 12 -35 25 -52 28 -17 4
-38 8 -46 10 -8 2 -31 -1 -50 -7z m100 -78 c40 -40 27 -50 -61 -50 -86 0 -87
2 -46 48 26 28 79 30 107 2z"/>
<path d="M6182 414 c-12 -8 -22 -10 -22 -5 0 6 -18 11 -40 11 l-40 0 0 -155 0
-155 40 0 40 0 0 119 c0 99 3 120 16 125 27 10 72 7 81 -6 4 -7 10 -62 13
-123 l5 -110 38 -3 37 -3 0 119 c0 100 3 121 16 126 27 10 72 7 81 -6 4 -7 10
-62 13 -123 l5 -110 38 -3 39 -3 -4 131 -3 132 -33 29 c-37 34 -94 39 -142 14
-27 -14 -33 -14 -60 0 -37 19 -90 19 -118 -1z"/>
<path d="M6662 409 c-69 -45 -94 -154 -49 -220 53 -79 142 -101 227 -56 53 28
58 39 25 61 -23 15 -28 15 -47 1 -35 -24 -100 -20 -126 8 -40 42 -31 47 93 47
l115 0 0 35 c0 45 -20 85 -60 119 -41 34 -128 37 -178 5z m147 -65 c12 -15 21
-31 21 -35 0 -5 -36 -9 -80 -9 -87 0 -95 6 -55 45 34 35 86 34 114 -1z"/>
<path d="M5940 264 l0 -155 38 3 37 3 3 153 3 152 -41 0 -40 0 0 -156z"/>
</g>
</svg>
