<?xml version="1.0" standalone="no"?>
<!DOCTYPE svg PUBLIC "-//W3C//DTD SVG 20010904//EN"
 "http://www.w3.org/TR/2001/REC-SVG-20010904/DTD/svg10.dtd">
<svg version="1.0" xmlns="http://www.w3.org/2000/svg"
 width="1870.000000pt" height="1870.000000pt" viewBox="0 0 1870.000000 1870.000000"
 preserveAspectRatio="xMidYMid meet">

<g transform="translate(0.000000,1870.000000) scale(0.100000,-0.100000)"
fill="#000000" stroke="none">
<path d="M9166 18458 c-325 -28 -671 -150 -936 -328 -174 -117 -182 -124 -423
-363 -127 -128 -261 -257 -296 -287 -540 -464 -1173 -792 -1851 -959 -380 -94
-622 -121 -1165 -131 -231 -4 -429 -10 -440 -13 -11 -4 -58 -13 -105 -22 -329
-61 -675 -230 -930 -455 -298 -263 -495 -553 -611 -905 -82 -247 -111 -468
-102 -790 26 -920 -259 -1866 -790 -2630 -180 -260 -351 -459 -605 -706 -180
-176 -253 -260 -343 -396 -189 -288 -301 -620 -330 -980 -35 -430 90 -904 331
-1263 117 -174 124 -182 363 -423 128 -127 257 -261 287 -296 567 -660 923
-1441 1044 -2291 35 -248 47 -435 45 -755 -1 -278 7 -391 37 -530 89 -403 273
-743 559 -1027 273 -272 574 -446 930 -538 204 -53 296 -61 705 -65 408 -3
525 -12 828 -65 711 -125 1385 -424 1957 -869 153 -120 179 -143 450 -411 248
-244 371 -346 541 -446 349 -206 782 -307 1176 -275 364 30 698 143 978 331
174 117 182 124 423 363 303 303 417 401 680 583 192 133 321 209 547 323 450
225 892 362 1395 430 229 31 411 42 719 40 279 -1 392 7 531 37 405 89 747
276 1033 565 230 232 394 495 491 788 87 261 102 385 106 846 3 402 12 521 65
823 119 680 401 1332 812 1882 158 211 231 293 452 515 262 263 316 324 408
464 240 365 363 837 329 1264 -30 363 -143 697 -331 977 -117 175 -124 182
-364 423 -301 301 -398 415 -582 680 -133 192 -209 321 -323 547 -241 480
-380 955 -447 1520 -12 103 -18 243 -20 485 -3 392 -8 473 -35 610 -83 415
-273 770 -570 1063 -236 234 -491 393 -790 492 -258 86 -383 101 -844 105
-402 3 -521 12 -823 65 -616 108 -1203 345 -1717 695 -271 184 -427 315 -701
590 -231 231 -304 295 -443 387 -276 182 -615 298 -956 327 -136 12 -207 12
-349 -1z m355 -218 c277 -28 532 -107 764 -238 168 -95 273 -180 505 -412 124
-124 281 -272 350 -329 69 -57 135 -112 148 -122 45 -38 199 -147 299 -212
526 -341 1102 -567 1713 -671 279 -47 430 -59 825 -61 396 -2 457 -8 665 -62
692 -179 1247 -775 1373 -1474 28 -151 30 -189 32 -549 2 -356 13 -510 51
-750 113 -708 393 -1384 805 -1950 162 -223 296 -377 535 -615 231 -231 255
-258 350 -402 388 -584 414 -1359 66 -1978 -91 -163 -189 -282 -417 -510 -231
-232 -321 -334 -489 -555 -430 -568 -718 -1237 -840 -1950 -48 -280 -59 -430
-61 -825 -2 -363 -7 -424 -41 -580 -143 -659 -633 -1198 -1274 -1403 -222 -71
-331 -83 -760 -87 -549 -4 -872 -47 -1329 -179 -339 -98 -778 -288 -1046 -454
-392 -243 -617 -423 -955 -762 -225 -227 -252 -250 -397 -346 -189 -126 -430
-225 -658 -273 -502 -103 -1046 6 -1460 294 -118 83 -163 123 -400 360 -110
110 -268 255 -350 323 -566 464 -1209 779 -1899 932 -364 80 -587 102 -1051
105 -362 2 -411 6 -579 41 -445 93 -866 368 -1133 742 -127 178 -196 311 -263
513 -76 227 -102 430 -93 725 30 970 -282 1973 -858 2764 -162 223 -295 376
-535 615 -231 231 -255 258 -350 402 -388 584 -414 1362 -66 1978 94 167 179
271 419 512 128 129 259 265 290 304 148 179 189 232 265 338 289 405 526 898
661 1376 129 457 169 758 172 1310 2 395 8 460 59 655 123 474 427 883 844
1137 346 210 684 293 1132 277 175 -7 460 7 650 32 890 114 1704 471 2380
1043 69 58 219 201 335 317 231 231 258 255 402 350 349 232 799 345 1214 304z"/>
<path d="M8970 16950 c-931 -50 -1835 -265 -2675 -635 -222 -98 -597 -289
-750 -382 -11 -7 -27 -16 -35 -20 -25 -12 -309 -192 -420 -266 -170 -114 -429
-309 -585 -441 -38 -32 -95 -80 -125 -105 -171 -145 -521 -488 -693 -681 -239
-267 -553 -679 -727 -950 -40 -63 -88 -138 -106 -166 -112 -176 -314 -556
-424 -799 -376 -829 -586 -1641 -667 -2575 -23 -269 -23 -889 0 -1160 73 -844
246 -1565 560 -2330 83 -202 287 -625 366 -758 17 -29 31 -55 31 -57 0 -8 203
-340 269 -438 310 -468 649 -878 1047 -1269 606 -595 1310 -1086 2078 -1450
188 -89 235 -109 473 -203 1764 -700 3793 -695 5563 13 263 105 707 315 868
411 29 17 55 31 57 31 8 0 340 203 438 269 798 530 1483 1188 2021 1941 243
340 501 770 651 1085 146 308 145 306 251 573 203 512 355 1082 438 1638 107
720 111 1451 10 2174 -128 921 -431 1825 -883 2634 -34 60 -61 111 -61 113 0
6 -185 301 -249 398 -400 600 -957 1219 -1496 1661 -359 295 -703 533 -1070
744 -203 116 -254 143 -444 236 -770 376 -1581 616 -2431 719 -362 43 -931 63
-1280 45z m740 -220 c1084 -56 2133 -343 3074 -841 417 -222 846 -502 1166
-764 41 -33 102 -83 135 -109 299 -240 722 -669 1011 -1026 835 -1032 1379
-2279 1568 -3595 294 -2046 -285 -4115 -1601 -5721 -279 -340 -552 -623 -847
-879 -38 -33 -88 -76 -110 -96 -105 -92 -369 -294 -551 -420 -2175 -1512
-4987 -1739 -7386 -596 -908 432 -1806 1123 -2439 1876 -25 30 -50 59 -56 65
-16 17 -232 294 -278 357 -500 685 -867 1415 -1110 2204 -527 1715 -412 3549
327 5195 126 282 269 550 451 845 420 682 926 1263 1582 1818 108 91 405 314
559 419 949 646 2050 1066 3175 1212 460 60 894 78 1330 56z"/>
<path d="M10499 16147 c-19 -13 -50 -38 -69 -56 -19 -18 -48 -41 -63 -51 -16
-10 -58 -45 -95 -78 -37 -33 -92 -81 -122 -107 -69 -60 -90 -82 -90 -93 0 -5
-10 -16 -22 -24 -12 -8 -18 -19 -14 -26 12 -19 24 -14 70 28 24 22 50 40 58
40 8 0 22 8 32 18 9 11 35 25 59 32 69 20 245 110 274 139 16 16 41 50 57 76
l30 48 -20 36 c-24 44 -41 48 -85 18z"/>
<path d="M10973 16035 c-37 -16 -53 -41 -53 -87 -1 -18 -8 -51 -16 -73 -8 -22
-17 -49 -19 -60 -5 -29 -21 -85 -34 -120 -6 -16 -16 -50 -23 -75 l-13 -45 -74
-2 c-40 -1 -75 -4 -78 -7 -3 -3 -14 -1 -24 5 -28 14 -13 37 47 70 83 47 100
104 46 153 -18 15 -30 17 -77 11 -47 -5 -59 -11 -82 -41 -24 -33 -25 -37 -13
-74 11 -34 11 -42 -2 -57 -9 -10 -19 -38 -23 -62 -7 -41 -5 -46 25 -73 18 -16
44 -31 57 -34 20 -5 22 -10 17 -44 -5 -32 -2 -40 20 -58 l27 -20 -45 -31 c-24
-17 -47 -31 -51 -31 -3 0 -21 -11 -38 -24 -18 -13 -51 -33 -75 -45 -36 -19
-43 -26 -40 -48 5 -45 28 -49 91 -18 32 15 57 31 57 36 0 5 6 9 14 9 8 0 41
19 74 41 33 23 65 38 71 35 14 -9 14 -69 0 -83 -6 -6 -12 -32 -14 -58 -2 -25
-6 -49 -9 -52 -3 -4 -6 -18 -6 -31 0 -14 -4 -39 -10 -56 -34 -110 -50 -174
-50 -203 0 -19 -5 -43 -11 -54 -5 -11 -12 -39 -14 -62 -8 -107 -18 -176 -32
-216 -12 -39 -12 -46 2 -60 31 -31 142 -5 187 45 17 19 18 35 18 174 1 36 5
74 9 85 23 50 30 88 22 104 -9 15 -10 14 -16 -1 -9 -22 -25 -24 -25 -4 0 8 9
17 19 21 26 8 36 42 19 63 -8 9 -13 35 -12 56 1 31 6 42 28 53 25 13 33 41 27
93 0 8 -4 35 -6 60 -3 26 1 66 10 95 8 28 17 62 20 77 8 42 50 83 121 118 66
33 146 92 153 114 2 6 9 18 16 26 16 20 39 154 31 184 -11 44 -45 76 -81 76
-33 0 -34 -1 -25 -26 13 -33 13 -109 0 -132 -5 -9 -16 -34 -24 -54 -9 -23 -28
-45 -48 -57 -18 -11 -38 -24 -44 -29 -6 -5 -20 -13 -32 -16 -19 -6 -22 -3 -22
18 0 14 4 26 9 26 4 0 14 28 20 63 16 78 55 205 81 259 48 101 5 187 -77 153z
m-213 -630 c-7 -8 -17 -15 -22 -15 -6 0 -5 7 2 15 7 8 17 15 22 15 6 0 5 -7
-2 -15z"/>
<path d="M8285 16005 c-33 -7 -87 -22 -121 -33 -62 -20 -321 -130 -429 -182
-33 -16 -87 -40 -120 -54 -100 -43 -110 -50 -113 -78 -4 -35 33 -60 102 -68
81 -11 158 22 241 102 40 38 144 106 225 147 36 17 74 42 85 54 12 14 29 21
43 19 13 -2 30 -1 39 2 12 5 13 9 3 21 -10 13 -9 15 9 15 21 0 21 -1 5 -32 -9
-18 -44 -63 -78 -99 -33 -36 -85 -91 -114 -122 -74 -79 -83 -111 -89 -306 -6
-155 -7 -166 -29 -188 -13 -13 -32 -23 -43 -23 -29 0 -247 -128 -276 -162 -14
-16 -25 -33 -25 -38 0 -14 43 -40 65 -40 12 0 26 -5 31 -10 20 -20 151 42 236
112 44 36 48 37 57 19 18 -33 34 -206 22 -229 -6 -11 -36 -32 -67 -46 -54 -25
-64 -42 -33 -57 71 -34 174 -39 211 -9 30 23 42 89 27 144 -11 39 -26 141 -36
234 l-5 52 36 15 c20 9 57 31 82 50 25 19 51 35 58 35 8 0 25 9 39 20 24 19
57 27 57 14 0 -3 -11 -20 -25 -36 -28 -34 -28 -53 0 -53 23 0 105 98 105 126
0 11 -13 33 -28 48 -22 22 -34 27 -60 23 -18 -2 -35 -8 -38 -13 -3 -5 -15 -9
-27 -9 -12 0 -60 -18 -107 -40 -94 -44 -130 -50 -130 -22 -1 9 -5 49 -9 87 -5
39 -5 97 0 129 10 73 29 93 204 210 48 32 128 121 160 179 17 30 13 60 -13 90
-18 20 -44 20 -127 2z"/>
<path d="M10388 15794 c-16 -8 -28 -19 -28 -24 0 -15 -36 -12 -50 5 -20 24
-36 18 -70 -25 -17 -22 -38 -40 -46 -40 -22 0 -202 -89 -207 -103 -7 -18 9
-53 27 -60 8 -3 41 2 73 13 31 10 61 16 65 14 9 -6 0 -52 -12 -69 -4 -5 -15
-33 -24 -62 -16 -49 -23 -56 -104 -109 -48 -31 -100 -66 -116 -77 -16 -11 -53
-27 -81 -36 -66 -21 -100 -49 -108 -89 -6 -28 -1 -42 33 -93 52 -75 74 -82
139 -40 49 32 61 47 61 79 0 9 7 30 15 46 8 15 15 34 15 41 0 8 6 26 14 42 8
15 20 42 28 58 12 28 36 54 49 55 8 0 -8 -88 -20 -115 -5 -11 -17 -51 -27 -90
-9 -38 -21 -78 -26 -87 -7 -15 -36 -139 -55 -233 -3 -16 -12 -37 -19 -46 -8
-9 -12 -23 -9 -31 8 -20 79 -32 105 -18 23 12 51 66 44 85 -7 16 32 213 45
229 4 6 14 43 21 81 7 39 17 75 22 82 5 7 13 36 18 65 13 84 40 201 50 213 4
5 11 26 15 46 8 43 57 106 94 121 14 5 42 12 61 14 43 6 77 38 86 80 5 26 1
37 -23 62 -27 30 -29 31 -55 16z"/>
<path d="M5515 15350 c-34 -22 -137 -135 -205 -224 -25 -33 -72 -89 -105 -125
-125 -137 -132 -193 -18 -146 20 8 61 18 91 22 l55 6 -6 -42 c-3 -24 -22 -69
-42 -102 -30 -48 -34 -62 -25 -79 6 -11 14 -20 19 -20 4 0 20 -22 35 -50 15
-27 31 -52 36 -55 15 -9 -68 -206 -118 -280 -26 -38 -55 -76 -65 -85 -10 -8
-28 -30 -39 -49 l-21 -34 22 -18 c29 -24 85 -17 159 19 75 37 98 74 132 219
14 62 31 81 53 59 8 -8 18 -31 21 -52 6 -29 3 -43 -17 -73 -75 -113 -57 -184
39 -148 l47 17 -6 -126 c-6 -118 -5 -129 15 -165 22 -40 43 -48 79 -28 28 14
38 46 40 128 1 39 6 68 11 65 4 -3 8 -18 8 -34 0 -46 22 -60 71 -47 46 11 42
15 111 -76 36 -46 66 -53 126 -27 83 36 214 104 232 121 9 9 62 49 116 90 107
79 178 144 187 171 6 17 -26 68 -87 139 -17 20 -44 55 -59 78 -22 32 -32 39
-42 31 -10 -8 -15 -8 -20 1 -4 6 -2 15 6 20 11 6 10 12 -5 28 -11 12 -27 21
-36 21 -21 0 -52 33 -48 51 2 8 -4 14 -12 14 -8 0 -19 6 -23 13 -10 15 -37 16
-37 1 0 -22 18 -48 90 -128 8 -9 24 -34 34 -56 10 -22 25 -52 32 -66 24 -48
44 -139 35 -162 -19 -50 -251 -235 -329 -263 -63 -22 -88 -18 -111 20 -22 35
-28 81 -11 91 6 3 10 17 10 31 0 14 9 42 19 62 11 22 17 48 14 65 -3 15 2 45
11 67 36 91 12 140 -69 140 -60 -1 -72 -14 -206 -226 -35 -56 -69 -110 -76
-120 -11 -18 -12 -17 -12 6 -1 14 6 38 14 53 8 16 22 52 30 79 8 28 19 56 23
62 5 6 12 26 15 44 4 18 18 62 33 98 36 92 30 110 -43 117 -67 7 -86 -2 -112
-51 -17 -31 -20 -33 -21 -14 0 12 -7 25 -15 28 -27 11 -16 43 24 68 38 25 81
81 81 107 0 8 7 27 16 44 35 67 74 171 74 198 0 36 -40 77 -76 77 -61 0 -130
-80 -211 -242 -21 -43 -42 -76 -48 -74 -5 1 -10 24 -10 50 0 37 -5 52 -22 66
-13 10 -23 26 -23 37 0 26 47 123 60 123 5 0 10 8 10 18 0 9 9 28 20 42 11 14
20 28 20 32 0 4 16 32 35 62 19 30 35 59 35 63 0 5 7 18 15 28 48 63 95 143
95 162 0 26 -35 53 -70 53 -14 0 -38 -9 -55 -20z m59 -596 c5 -12 2 -15 -10
-10 -8 3 -18 6 -20 6 -3 0 -2 5 1 10 9 15 22 12 29 -6z m-18 -77 c-7 -25 -26
-57 -41 -71 -29 -27 -56 -36 -38 -13 6 6 16 29 23 50 10 33 58 92 67 83 2 -1
-3 -23 -11 -49z m94 -322 c-10 -35 -16 -43 -25 -35 -15 13 -3 69 17 81 20 13
22 3 8 -46z m185 -135 c-4 -12 -9 -19 -12 -17 -3 3 -2 15 2 27 4 12 9 19 12
17 3 -3 2 -15 -2 -27z m-275 -52 c-35 -28 -51 -24 -39 11 10 27 13 29 36 18
l25 -11 -22 -18z m272 10 c3 -7 1 -32 -4 -55 -8 -37 -13 -44 -45 -52 -20 -6
-38 -9 -40 -8 -1 2 8 18 21 36 13 18 30 46 36 62 13 31 25 37 32 17z m-37
-196 c0 -18 -20 -15 -23 4 -3 10 1 15 10 12 7 -3 13 -10 13 -16z"/>
<path d="M12955 14919 c-16 -10 -44 -26 -62 -34 -18 -8 -36 -21 -40 -29 -4 -7
-23 -21 -40 -30 -18 -9 -33 -21 -33 -26 0 -5 -21 -23 -46 -40 -46 -30 -48 -31
-128 -24 -44 3 -86 11 -93 16 -7 5 -16 7 -22 4 -5 -3 -22 -1 -37 4 -16 6 -38
9 -51 5 -20 -5 -22 -9 -16 -58 7 -64 15 -75 62 -83 56 -9 71 -15 71 -25 0 -19
-44 -69 -61 -69 -9 0 -19 -7 -22 -14 -5 -13 -34 -14 -184 -9 -98 3 -182 9
-188 13 -10 8 -81 32 -103 36 -21 4 -25 -22 -8 -55 42 -81 77 -121 118 -133
22 -6 42 -17 45 -24 2 -7 -5 -30 -15 -51 -11 -21 -24 -57 -28 -78 -4 -22 -14
-50 -22 -62 -13 -20 -12 -26 2 -48 9 -14 26 -25 39 -25 12 0 31 -3 43 -6 16
-4 38 11 96 68 42 40 94 97 117 127 59 77 96 94 197 92 45 -1 93 -4 105 -7 13
-2 60 -7 104 -10 86 -6 155 -20 155 -32 0 -11 -77 -52 -98 -52 -22 0 -72 -46
-72 -66 0 -7 25 -34 55 -60 30 -26 55 -53 55 -60 0 -6 6 -17 14 -23 7 -6 16
-25 20 -41 3 -17 6 -33 7 -38 3 -10 -65 -23 -134 -25 -47 -2 -62 2 -77 18 -27
29 -60 111 -60 150 0 38 -22 63 -37 43 -23 -31 -53 -125 -53 -167 0 -39 5 -52
28 -73 52 -49 138 -80 195 -70 21 4 70 5 108 4 65 -3 71 -6 81 -30 6 -15 12
-40 14 -57 1 -16 10 -61 19 -100 30 -128 33 -149 40 -268 7 -113 9 -119 32
-130 27 -12 23 -15 84 64 36 46 57 138 38 164 -15 21 -57 162 -63 210 -4 28
-15 77 -25 110 -18 58 -19 81 -2 70 5 -2 16 4 26 15 10 11 22 20 27 20 15 0
125 91 137 113 20 38 -1 73 -61 102 -28 14 -63 25 -76 25 -13 0 -38 6 -55 14
-44 20 -108 36 -119 30 -4 -3 -8 1 -8 8 0 8 21 20 48 27 26 8 52 17 57 21 24
16 104 40 131 40 61 -2 134 7 148 19 7 6 18 11 22 10 28 -5 56 4 79 24 23 19
26 28 23 76 -3 50 -4 53 -19 39 -19 -19 -108 -39 -128 -28 -12 6 -11 9 5 14
10 4 34 26 52 50 42 56 45 124 8 161 -21 21 -29 23 -54 14 -16 -5 -41 -24 -55
-42 -14 -18 -47 -58 -72 -89 -25 -32 -52 -58 -59 -58 -7 0 -21 -9 -32 -21 -17
-19 -26 -20 -104 -15 -47 4 -130 8 -185 11 -110 6 -225 23 -225 35 0 12 36 40
53 40 9 0 19 5 22 10 3 6 21 10 38 10 18 0 45 7 61 15 16 9 51 16 77 17 27 0
60 7 75 14 14 8 37 14 50 14 13 0 33 9 44 20 17 17 20 28 14 63 -3 23 -7 85
-8 137 -2 106 -8 114 -61 79z m-50 -168 c3 -6 -4 -15 -15 -21 -16 -8 -20 -8
-20 3 0 25 23 36 35 18z m-655 -399 c0 -4 -15 -23 -34 -41 l-35 -34 -14 34
c-10 24 -11 36 -3 41 15 10 86 10 86 0z m847 -274 c30 -24 0 -70 -52 -80 -20
-4 -50 34 -60 76 l-6 29 53 -7 c29 -4 58 -12 65 -18z"/>
<path d="M6290 14526 c0 -9 7 -16 16 -16 9 0 14 5 12 12 -6 18 -28 21 -28 4z"/>
<path d="M9040 14263 c-436 -30 -822 -105 -1233 -240 l-107 -35 25 -41 c32
-53 83 -160 91 -193 3 -13 9 -26 13 -29 4 -2 62 14 129 35 1249 400 2635 237
3767 -444 331 -199 589 -400 869 -675 297 -292 516 -572 740 -944 43 -71 75
-131 73 -133 -2 -3 -548 -56 -1213 -119 -665 -63 -1243 -122 -1284 -131 -231
-48 -448 -158 -670 -339 -103 -84 -167 -143 -455 -425 -391 -384 -603 -522
-905 -592 -129 -30 -430 -32 -560 -4 -181 38 -366 125 -535 251 -125 93 -198
159 -475 431 -124 122 -247 241 -275 265 -255 227 -500 360 -758 413 -39 8
-292 36 -562 62 -269 25 -491 48 -493 49 -10 9 176 332 281 490 184 275 382
510 644 765 l180 175 -48 60 c-27 33 -62 86 -79 118 -17 31 -35 57 -40 57 -13
0 -346 -317 -420 -401 -36 -40 -72 -80 -81 -88 -20 -20 -158 -187 -220 -267
-158 -204 -346 -503 -468 -743 l-71 -140 -33 5 c-17 2 -295 29 -617 59 -322
30 -605 57 -629 61 -28 4 -42 2 -40 -5 2 -6 182 -213 399 -461 l395 -450 225
2 225 3 0 34 0 34 -197 52 c-109 28 -199 53 -201 56 -5 6 -426 489 -449 515
-18 20 -18 21 9 17 16 -2 217 -21 448 -43 1282 -121 1784 -172 1835 -185 177
-46 362 -142 530 -274 135 -107 124 -97 471 -433 391 -379 590 -520 859 -612
161 -54 267 -70 470 -69 139 0 196 5 277 22 227 48 413 135 628 295 105 78
213 174 424 381 199 194 204 198 257 244 21 18 59 53 84 76 115 107 325 246
455 302 177 76 172 75 1188 173 518 50 1023 98 1122 108 99 10 182 17 184 16
2 -2 -102 -124 -232 -271 l-235 -269 -193 -49 -194 -50 -3 -37 -3 -38 225 0
225 0 26 28 c14 15 164 185 333 379 169 193 309 352 313 352 13 2 146 -300
212 -479 305 -833 363 -1724 171 -2600 -22 -100 -73 -286 -118 -430 -15 -49
-9 -48 -111 -30 -39 6 -597 10 -1585 10 l-1524 0 46 -47 c139 -145 232 -320
273 -513 26 -125 37 -320 25 -443 -16 -166 -67 -354 -129 -475 l-22 -42 -137
118 c-75 66 -150 135 -167 153 -165 186 -219 261 -275 382 -68 146 -86 288
-55 425 32 139 62 179 608 799 l509 578 -52 3 c-86 5 -1494 -38 -1502 -46 -4
-4 -27 -53 -51 -108 l-45 -101 35 -17 c41 -20 44 -18 98 57 l40 55 200 6 c110
3 366 8 568 11 l369 5 -40 -47 c-22 -27 -207 -237 -411 -468 -387 -438 -427
-492 -479 -637 -23 -65 -26 -88 -26 -218 -1 -124 2 -155 22 -218 71 -225 198
-413 446 -655 l90 -87 -104 0 -105 1 -333 353 c-184 194 -349 375 -369 402
-46 63 -107 192 -127 269 -43 160 -27 385 40 560 8 19 -123 90 -140 76 -19
-16 -63 -162 -81 -265 -36 -210 -5 -425 87 -601 49 -95 99 -163 194 -265 49
-52 158 -169 243 -260 85 -91 177 -189 205 -217 l50 -53 -160 0 -161 0 -352
385 -352 385 -60 -52 c-32 -29 -59 -55 -59 -58 0 -3 128 -151 285 -330 l286
-325 -87 -3 -86 -3 -112 108 c-62 59 -216 208 -343 330 l-230 223 -194 -187
c-107 -102 -260 -251 -340 -330 l-146 -144 -86 3 -86 3 165 190 c91 105 219
252 285 327 l119 137 -37 35 c-21 19 -49 43 -63 54 l-25 20 -350 -384 -350
-384 -159 0 -160 0 25 28 c14 15 126 135 250 267 324 347 339 365 388 450 120
209 156 447 105 695 -17 80 -59 209 -73 223 -5 5 -39 -7 -78 -27 l-70 -35 28
-83 c85 -257 47 -538 -104 -758 -17 -25 -63 -79 -102 -120 -39 -41 -192 -202
-339 -357 l-267 -283 -105 0 -104 0 72 68 c244 226 397 447 464 668 23 77 27
107 27 219 1 115 -2 139 -26 210 -52 156 -94 213 -517 691 -217 246 -399 453
-403 461 -7 11 54 12 365 8 205 -3 460 -8 565 -11 l193 -6 42 -59 c24 -32 49
-61 56 -64 13 -5 72 20 72 31 0 9 -82 199 -89 206 -6 7 -1289 48 -1483 48
l-78 0 477 -542 c262 -299 494 -563 516 -588 96 -110 141 -233 141 -385 0
-278 -153 -511 -609 -928 -60 -56 -141 -132 -180 -169 l-70 -68 850 0 850 0
320 320 320 320 320 -320 320 -320 1725 -1 1725 0 -150 -146 c-395 -383 -860
-688 -1395 -916 -625 -266 -1320 -390 -1991 -357 -1295 64 -2448 625 -3307
1608 -72 82 -142 173 -295 380 -147 200 -386 646 -495 923 -288 737 -389 1522
-292 2272 30 231 32 247 40 252 4 2 40 -34 80 -81 l73 -84 161 2 161 3 3 42
c3 37 0 43 -20 48 -13 3 -70 16 -127 29 -57 13 -109 30 -117 38 -55 56 -213
243 -207 245 5 1 437 -8 961 -20 l952 -22 66 -88 c69 -94 71 -95 130 -63 21
11 21 13 -37 149 -32 77 -59 140 -61 142 -6 5 -2331 46 -2336 40 -3 -3 11 -23
32 -44 l38 -39 -25 -129 c-73 -367 -92 -571 -92 -993 1 -380 10 -498 61 -805
184 -1092 752 -2120 1574 -2849 374 -332 707 -554 1155 -772 525 -254 1032
-397 1660 -466 161 -18 768 -18 930 0 1045 114 1933 491 2717 1154 124 104
369 342 484 470 l69 76 285 4 c266 5 291 7 381 30 97 26 225 85 289 132 62 47
151 139 193 201 119 175 173 437 136 665 -33 208 -159 420 -316 533 -48 34
-49 37 -28 98 66 184 153 549 189 789 45 296 51 388 51 755 0 344 -5 421 -41
680 -197 1411 -1025 2696 -2231 3464 -702 446 -1465 699 -2293 761 -122 9
-548 11 -660 3z m4698 -6571 c237 -73 366 -210 434 -462 31 -116 31 -316 -1
-435 -24 -93 -79 -206 -130 -269 -82 -100 -226 -173 -385 -195 -52 -7 -515
-11 -1411 -11 l-1334 0 34 73 c86 186 120 393 112 682 -8 265 -42 434 -119
588 l-28 57 1377 -2 1378 -3 73 -23z"/>
<path d="M11360 7025 l0 -85 1251 0 1251 0 19 23 c27 33 25 92 -6 122 l-24 25
-1246 0 -1245 0 0 -85z"/>
<path d="M6865 14040 c-120 -26 -242 -95 -320 -182 -101 -113 -148 -233 -149
-383 0 -164 52 -292 168 -411 275 -282 748 -207 925 146 51 103 65 170 59 295
-6 120 -28 184 -99 290 -104 156 -261 243 -449 251 -52 2 -113 -1 -135 -6z"/>
<path d="M3743 13585 c-32 -32 -34 -39 -32 -87 4 -80 32 -176 73 -246 20 -35
36 -67 36 -70 0 -3 21 -25 48 -48 41 -37 46 -45 35 -62 -6 -11 -15 -78 -19
-150 l-7 -132 -31 48 c-46 72 -53 83 -83 139 -25 50 -52 71 -71 59 -11 -7 -6
-107 9 -189 10 -58 54 -180 85 -237 7 -14 23 -48 35 -77 24 -60 54 -92 70 -76
6 6 28 9 48 6 32 -4 41 -1 59 22 12 15 26 44 32 64 8 33 13 138 8 186 -1 11
-1 80 0 153 2 124 3 132 22 132 29 0 53 -32 75 -97 11 -32 34 -89 53 -127 43
-87 45 -113 16 -152 -13 -17 -24 -38 -24 -47 0 -10 -4 -17 -8 -17 -5 0 -16
-19 -27 -42 -10 -24 -21 -45 -25 -48 -3 -3 -11 -21 -17 -40 -11 -35 -41 -114
-82 -220 -12 -30 -35 -82 -51 -115 -39 -79 -45 -111 -30 -141 17 -32 31 -30
70 6 26 24 33 40 35 73 1 27 13 61 33 95 18 29 32 56 32 60 0 8 108 221 151
299 23 40 39 55 39 34 0 -23 85 -114 123 -131 37 -17 44 -17 77 -4 19 8 47 26
61 40 l26 25 5 -25 c3 -14 -2 -49 -11 -78 -12 -41 -29 -66 -77 -113 -46 -45
-59 -63 -50 -71 20 -19 89 19 140 79 69 80 78 101 82 196 3 82 4 85 36 110 68
53 90 80 83 103 -4 13 -12 28 -19 35 -13 14 -89 43 -131 50 -16 2 -45 12 -64
20 -18 8 -62 25 -97 37 -63 21 -63 21 -51 46 7 14 19 45 26 70 7 25 18 51 25
59 11 14 41 69 71 129 8 18 33 45 55 60 21 15 44 38 50 52 6 14 22 39 35 54
33 38 31 46 -6 41 -30 -4 -109 -60 -139 -98 -8 -11 -32 -38 -52 -60 -21 -23
-38 -47 -38 -54 0 -7 -4 -13 -9 -13 -5 0 -18 -17 -29 -37 -10 -21 -30 -56 -42
-78 -51 -90 -90 -169 -90 -183 0 -27 -17 0 -35 56 -9 30 -17 80 -18 112 0 51
4 63 32 98 53 68 77 136 85 243 9 137 1 178 -44 229 -31 35 -45 43 -82 47 -37
4 -51 0 -92 -27 -47 -32 -126 -121 -126 -143 0 -7 -16 17 -35 53 -19 36 -55
84 -81 108 -61 55 -101 57 -151 7z m100 -107 c13 -18 43 -69 66 -114 41 -79
41 -82 29 -127 -10 -39 -14 -44 -27 -34 -36 30 -111 231 -111 299 0 18 20 6
43 -24z m371 -16 c17 -39 19 -192 3 -192 -5 0 -6 -13 -2 -29 6 -29 -12 -111
-24 -111 -4 0 -30 39 -60 88 l-53 87 21 80 c15 55 29 87 46 102 32 28 48 22
69 -25z m321 -823 c8 -15 15 -34 15 -41 0 -12 -63 -71 -97 -91 -16 -10 -49 26
-79 86 -27 52 -24 76 13 150 l14 28 60 -52 c33 -28 66 -64 74 -80z"/>
<path d="M14996 12965 c-11 -8 -30 -15 -42 -15 -12 0 -27 -7 -34 -15 -7 -8
-20 -15 -30 -15 -9 0 -29 -9 -43 -20 -14 -11 -28 -20 -32 -20 -4 0 -39 -15
-78 -34 -40 -19 -90 -40 -112 -46 -22 -7 -69 -26 -104 -43 -34 -16 -73 -29
-85 -28 -11 0 -41 0 -65 1 -31 0 -57 8 -83 25 -21 14 -40 25 -43 25 -3 0 -25
15 -49 34 -24 18 -56 36 -70 40 -14 3 -30 15 -36 26 -6 11 -16 20 -23 20 -7 1
-28 14 -47 30 -37 32 -77 39 -86 15 -14 -35 7 -107 40 -139 18 -17 59 -56 91
-86 31 -30 61 -63 67 -73 14 -27 1 -54 -30 -60 -15 -3 -49 -11 -77 -17 -27 -6
-59 -12 -70 -12 -11 -1 -25 -6 -32 -11 -6 -4 -46 -12 -88 -16 -77 -7 -95 -17
-95 -53 0 -27 41 -60 69 -55 13 3 40 -2 59 -10 45 -19 196 -21 218 -2 10 8 43
12 95 12 74 0 82 2 96 23 13 21 20 23 57 18 22 -4 46 -10 51 -15 6 -4 56 -11
110 -14 55 -3 120 -9 145 -12 110 -13 197 5 320 67 65 33 90 54 90 77 0 13 -8
14 -47 9 -27 -4 -63 -12 -80 -17 -26 -8 -54 -6 -128 11 -55 13 -95 28 -95 34
0 17 40 52 70 61 14 4 39 18 55 30 17 12 62 38 102 58 72 36 98 56 121 95 24
42 10 132 -21 132 -7 0 -21 -7 -31 -15z"/>
<path d="M14098 12318 c-3 -7 5 -30 15 -52 16 -33 47 -157 47 -189 0 -4 -11
-12 -25 -17 -14 -5 -25 -13 -25 -18 0 -19 38 -41 80 -48 25 -4 61 -18 80 -31
l35 -23 23 24 c23 22 24 27 13 76 -24 111 -223 339 -243 278z"/>
<path d="M15054 11101 c-17 -10 -37 -33 -44 -51 -12 -28 -11 -39 5 -85 21 -62
85 -151 140 -195 147 -116 514 -524 492 -547 -7 -6 -102 47 -161 89 -37 27
-64 29 -49 5 40 -71 218 -247 248 -247 11 0 36 15 54 34 l34 35 -37 77 c-51
108 -224 353 -366 519 -41 48 -84 99 -94 114 -11 14 -37 49 -58 77 -21 28 -38
56 -38 62 0 5 -4 12 -9 14 -6 2 -22 27 -38 57 -16 30 -33 56 -38 58 -6 1 -24
-6 -41 -16z"/>
<path d="M2694 10899 c-69 -20 -95 -97 -110 -332 -3 -43 -9 -89 -14 -102 -5
-14 -10 -111 -10 -217 -1 -147 4 -225 20 -327 11 -73 20 -135 20 -137 0 -15
50 -44 74 -44 41 0 50 7 79 62 21 39 27 45 37 33 6 -8 37 -24 68 -35 32 -12
90 -38 131 -57 67 -33 76 -42 98 -87 37 -79 69 -128 108 -168 l37 -38 -28 -1
c-16 -1 -34 -1 -40 0 -7 1 -21 -17 -32 -40 -16 -32 -18 -47 -11 -68 24 -63 72
-88 183 -98 123 -10 240 22 294 80 33 35 17 67 -35 67 -43 0 -164 64 -210 112
-25 26 -79 125 -70 129 1 0 17 3 36 6 56 8 91 40 91 84 0 31 -6 43 -37 68 -21
17 -46 31 -56 31 -18 0 -107 37 -107 44 0 3 -7 33 -17 68 -9 35 -16 71 -15 80
0 10 -3 20 -9 23 -5 4 -9 17 -9 30 0 13 -11 54 -24 90 -13 36 -20 65 -16 65 9
0 99 -116 107 -137 3 -7 10 -13 17 -14 11 0 164 -190 240 -299 14 -19 41 -57
61 -85 72 -100 68 -94 55 -110 -10 -12 -9 -20 4 -40 9 -14 23 -25 30 -25 8 0
16 -9 19 -20 4 -16 14 -20 45 -20 l39 0 26 71 c20 53 24 76 17 90 -13 23 -28
101 -35 182 -4 33 -7 65 -8 70 -2 10 8 16 65 40 81 35 95 121 39 229 -40 77
-109 144 -227 222 -49 33 -115 81 -146 108 -31 26 -59 48 -63 48 -9 0 -102 79
-143 123 -55 58 -134 115 -168 121 -23 4 -36 1 -49 -14 -21 -23 -38 -108 -39
-197 0 -35 -3 -63 -6 -63 -3 0 -23 11 -45 25 -60 37 -106 33 -155 -11 -30 -27
-42 -47 -47 -78 l-7 -41 -8 60 c-12 98 0 273 22 333 25 65 25 84 2 105 -21 19
-24 19 -68 6z m484 -291 c42 -39 88 -83 102 -97 14 -14 56 -53 94 -86 37 -33
82 -73 100 -88 17 -16 49 -41 71 -55 22 -14 58 -42 80 -62 23 -19 54 -46 71
-60 41 -33 57 -66 49 -98 -12 -49 -26 -55 -44 -20 -25 50 -56 49 -101 -3 l-36
-42 13 -51 c20 -77 10 -86 -37 -36 -22 24 -40 47 -40 51 0 4 -26 36 -59 69
-32 34 -64 73 -71 86 -8 13 -17 24 -21 24 -4 0 -31 26 -61 57 -29 32 -87 92
-129 134 -42 42 -82 86 -88 97 -16 30 -25 131 -17 196 10 76 28 74 124 -16z
m-265 -199 c12 -6 36 -26 54 -44 l31 -33 2 -144 c0 -78 3 -175 5 -213 l5 -71
-40 4 c-22 2 -43 8 -46 13 -3 5 -15 9 -27 9 -12 0 -33 7 -47 15 -14 8 -38 20
-54 26 l-28 12 6 91 c3 50 2 108 -3 129 -13 55 4 55 25 0 24 -62 73 -135 88
-130 7 2 10 27 8 73 -2 38 -6 115 -8 172 -3 56 -2 102 1 102 3 0 16 -5 28 -11z"/>
<path d="M15750 10856 c-14 -8 -50 -17 -80 -21 -64 -8 -120 -39 -120 -65 0
-20 7 -26 105 -90 82 -54 173 -146 158 -161 -8 -8 -32 -1 -92 30 -52 26 -82
37 -87 30 -10 -17 26 -58 76 -86 25 -14 49 -29 54 -33 4 -4 -4 -29 -19 -54
-31 -52 -28 -90 6 -101 24 -8 62 23 85 68 8 15 20 27 27 27 30 0 214 -101 245
-134 37 -41 142 -196 142 -209 0 -14 -49 -2 -116 28 -101 46 -109 51 -109 82
0 27 -2 28 -51 28 -35 0 -56 6 -68 18 -10 9 -27 17 -39 17 -12 0 -35 12 -50
26 -15 14 -34 23 -42 20 -12 -4 -12 -11 0 -47 31 -88 53 -104 285 -212 149
-69 213 -82 244 -48 13 14 16 28 10 56 -7 38 -86 166 -136 220 -27 29 -27 30
-9 50 10 11 22 30 25 41 6 21 12 19 131 -42 142 -73 181 -80 214 -38 22 28 20
44 -5 44 -20 0 -233 92 -332 143 -14 7 -36 40 -55 82 -18 39 -36 76 -40 83
-14 21 -27 3 -27 -36 0 -60 -10 -65 -63 -30 -26 17 -50 28 -53 25 -9 -8 24
-48 67 -82 21 -16 46 -41 55 -53 16 -24 16 -24 -16 -17 -51 11 -81 31 -148 97
l-64 63 29 7 c19 5 44 28 74 70 88 121 85 136 -15 83 -50 -26 -73 -33 -96 -29
-27 6 -31 4 -36 -25 -4 -17 -12 -31 -18 -31 -7 0 -31 20 -55 44 l-43 44 58 56
c48 46 56 59 44 66 -19 12 -20 12 -50 -4z"/>
<path d="M14714 10708 c-22 -31 -45 -90 -69 -178 -26 -94 -61 -172 -97 -219
-28 -37 -23 -66 18 -97 l35 -27 117 22 c64 13 145 27 180 33 34 5 96 20 138
34 84 27 78 29 147 -35 41 -38 90 -100 68 -87 -7 5 -31 28 -53 52 -35 38 -58
48 -58 26 0 -31 265 -336 302 -348 24 -7 75 24 82 50 12 44 4 65 -56 157 -35
52 -70 108 -78 125 -17 34 -23 43 -116 184 -114 174 -173 246 -196 238 -16 -6
-38 -91 -38 -144 0 -19 12 -57 26 -85 14 -28 24 -52 22 -54 -2 -2 -79 -5 -171
-6 -130 -3 -170 0 -176 10 -8 12 -14 105 -15 206 0 22 3 66 8 98 8 56 0 74
-20 45z"/>
<path d="M11500 10529 c-498 -10 -956 -19 -1019 -21 l-114 -3 -59 -139 c-32
-77 -57 -140 -56 -141 10 -8 69 -35 76 -35 5 0 38 40 74 88 l65 88 824 17
c453 10 887 20 964 24 l139 6 -94 -107 c-52 -60 -104 -119 -115 -132 -16 -20
-44 -30 -130 -50 -157 -36 -145 -29 -145 -80 l0 -44 163 0 162 1 220 250 c121
138 228 262 238 275 l19 24 -154 -1 c-84 -1 -560 -10 -1058 -20z"/>
<path d="M5047 9897 c4 -8 96 -114 203 -235 l195 -222 148 0 148 0 -3 37 -3
38 -102 23 -102 24 -91 104 c-51 58 -90 107 -87 110 5 5 1403 -24 1555 -32
l103 -6 47 -69 c26 -37 53 -68 60 -69 7 0 26 7 42 15 l28 15 -49 117 c-27 64
-51 118 -53 120 -1 2 -364 9 -807 17 -442 8 -902 18 -1022 21 -185 5 -217 4
-210 -8z"/>
<path d="M11850 9903 c-74 -2 -497 -10 -940 -18 -442 -8 -807 -19 -811 -23 -4
-4 -26 -52 -49 -107 -23 -55 -44 -105 -47 -112 -4 -11 44 -43 66 -43 5 0 31
31 58 69 l48 69 100 6 c122 7 1557 38 1561 33 2 -1 -37 -50 -86 -107 l-90
-105 -102 -25 -103 -26 -3 -37 -3 -38 148 3 148 3 163 185 c90 102 182 206
204 233 l40 47 -84 -2 c-45 -1 -144 -4 -218 -5z"/>
<path d="M5547 9327 c10 -13 92 -107 182 -210 l163 -187 129 0 129 0 0 33 0
34 -85 22 -85 23 -76 86 -76 87 38 4 c44 4 1008 -16 1237 -25 l148 -6 40 -53
c38 -51 42 -53 70 -43 16 5 32 14 35 20 4 5 -13 54 -36 109 l-42 99 -142 0
c-77 0 -465 7 -861 15 -396 8 -735 15 -753 15 l-33 0 18 -23z"/>
<path d="M10995 9338 c-231 -4 -579 -11 -774 -16 l-354 -7 -43 -100 -43 -100
35 -18 c39 -20 40 -19 96 59 l22 32 160 6 c266 10 1168 28 1218 24 l46 -3 -74
-85 c-74 -85 -74 -85 -153 -106 -99 -27 -101 -29 -101 -65 l0 -29 133 0 132 0
150 172 c83 94 165 188 183 209 l34 39 -124 -2 c-68 0 -312 -5 -543 -10z"/>
<path d="M14846 7279 c-8 -19 -28 -65 -44 -104 -20 -46 -27 -75 -22 -85 5 -8
72 -96 148 -195 84 -109 135 -182 128 -186 -6 -3 -108 -14 -226 -24 -118 -10
-224 -21 -236 -26 -13 -5 -34 -39 -63 -104 -23 -53 -40 -99 -37 -102 3 -3 160
11 348 31 189 20 355 36 370 36 14 0 118 -40 230 -89 152 -66 206 -86 214 -77
19 19 76 168 67 176 -4 4 -99 47 -210 96 l-203 87 -225 300 -225 300 -14 -34z"/>
<path d="M3640 7023 c-89 -136 -166 -252 -170 -256 -4 -5 -159 13 -344 38
-186 26 -339 45 -342 42 -10 -9 85 -201 103 -208 10 -3 116 -17 236 -30 119
-13 217 -27 217 -31 0 -5 -58 -96 -130 -203 l-130 -194 31 -68 c17 -37 40 -87
50 -111 l19 -43 190 285 c106 160 196 286 205 286 8 0 146 -20 307 -45 160
-24 294 -42 296 -40 7 7 -79 194 -92 202 -6 4 -98 17 -204 29 -107 12 -196 25
-198 27 -3 3 46 83 109 179 l114 174 -44 100 c-25 54 -48 103 -52 107 -4 4
-81 -104 -171 -240z"/>
<path d="M14190 6004 c-110 -168 -199 -308 -197 -310 20 -20 133 -92 138 -88
4 2 38 50 75 107 36 56 68 103 69 105 1 2 177 -112 390 -252 213 -141 391
-256 395 -256 7 0 110 151 110 162 0 3 -175 121 -389 263 l-389 257 69 106
c38 58 69 109 69 114 0 6 -82 65 -126 91 -8 4 -87 -106 -214 -299z"/>
<path d="M3810 5994 c-275 -167 -464 -289 -462 -296 6 -22 94 -158 102 -158 5
0 112 63 239 140 127 77 336 203 464 281 127 77 235 143 239 145 10 6 -94 174
-107 173 -5 0 -219 -128 -475 -285z"/>
<path d="M4153 5536 c-226 -176 -423 -330 -437 -341 l-26 -20 97 -121 c144
-178 222 -244 348 -295 51 -21 76 -24 170 -23 99 0 117 3 180 30 130 56 267
171 328 275 92 157 89 355 -8 510 -30 46 -221 296 -233 303 -4 2 -192 -141
-419 -318z m500 -86 c80 -161 17 -323 -173 -445 -92 -59 -141 -76 -221 -76
-86 0 -154 29 -221 94 -52 51 -84 95 -75 103 2 3 137 108 298 235 l294 229 33
-37 c18 -21 47 -67 65 -103z"/>
<path d="M8888 5806 c-182 -49 -241 -273 -105 -393 67 -58 179 -71 262 -29
l47 25 -4 -43 c-11 -94 -67 -156 -142 -156 -34 0 -38 3 -57 48 -11 26 -27 53
-36 60 -46 34 -113 -6 -113 -68 0 -70 101 -130 219 -130 96 0 200 59 249 141
34 56 55 170 48 254 -9 113 -31 171 -86 225 -73 73 -170 96 -282 66z m136
-100 c43 -18 60 -59 54 -136 -5 -69 -24 -97 -75 -106 -78 -15 -129 45 -121
142 8 92 65 132 142 100z"/>
<path d="M9544 5802 c-68 -24 -101 -46 -124 -85 -26 -42 -27 -117 -2 -138 42
-36 98 -30 127 14 12 19 13 30 4 57 -11 30 -10 35 11 52 29 24 91 23 121 -1
18 -14 24 -29 24 -61 0 -57 -37 -90 -101 -90 l-44 0 0 -50 0 -50 41 0 c106 0
158 -81 113 -176 -19 -39 -67 -59 -121 -51 -50 8 -63 23 -63 71 0 99 -116 120
-151 28 -26 -67 46 -158 148 -188 117 -34 273 3 342 81 77 88 58 220 -39 270
l-28 14 39 41 c39 40 44 57 40 115 -8 94 -116 166 -249 165 -20 -1 -60 -9 -88
-18z"/>
<path d="M8316 5794 c-22 -8 -70 -17 -108 -21 l-68 -6 0 -38 c0 -36 1 -37 43
-44 23 -4 48 -12 55 -17 9 -8 12 -63 12 -213 0 -226 1 -223 -70 -232 -40 -6
-40 -6 -40 -49 l0 -44 195 0 195 0 0 45 c0 41 -2 45 -24 45 -41 0 -84 20 -90
43 -3 12 -6 140 -6 285 l0 262 -27 -1 c-16 0 -46 -7 -67 -15z"/>
<path d="M10305 5793 c-22 -8 -70 -17 -107 -20 l-68 -6 0 -38 c0 -36 1 -37 43
-44 23 -4 48 -12 55 -17 9 -8 12 -63 12 -213 0 -226 1 -223 -70 -232 l-41 -6
3 -41 3 -41 193 -3 192 -2 0 43 c0 44 0 44 -41 50 -75 10 -74 4 -77 312 l-3
275 -27 -1 c-15 -1 -45 -8 -67 -16z"/>
<path d="M13731 5409 c-50 -58 -59 -74 -50 -85 10 -12 771 -663 819 -701 13
-9 26 1 75 59 33 38 61 75 63 81 1 7 -15 25 -35 42 -21 16 -208 175 -416 352
-208 178 -382 323 -386 323 -4 0 -36 -32 -70 -71z"/>
<path d="M13444 5089 c-80 -45 -186 -149 -225 -221 -31 -57 -34 -71 -34 -143
0 -62 5 -89 22 -120 27 -51 112 -131 160 -152 55 -23 163 -18 299 13 188 43
239 36 284 -39 62 -100 -18 -216 -191 -278 l-89 -32 19 -26 c11 -14 42 -48 71
-76 l51 -50 76 40 c94 49 218 167 253 240 17 35 25 73 28 126 4 67 1 85 -23
138 -29 64 -95 135 -156 167 -59 31 -187 31 -310 0 -203 -51 -242 -46 -279 29
-18 38 -20 49 -10 84 6 24 26 56 48 77 38 37 128 94 149 94 6 0 24 5 39 10
l28 11 -69 69 c-38 39 -74 69 -80 69 -5 -1 -33 -14 -61 -30z"/>
<path d="M4845 4690 c-214 -208 -390 -383 -390 -389 0 -13 126 -142 135 -139
17 6 790 762 788 769 -5 12 -129 139 -137 139 -3 -1 -181 -172 -396 -380z"/>
<path d="M5648 4507 c-379 -246 -828 -548 -828 -557 0 -5 33 -35 74 -65 87
-65 68 -69 217 36 62 44 103 67 111 63 47 -29 308 -227 308 -234 0 -5 -18 -65
-40 -134 -22 -69 -37 -131 -34 -138 5 -12 136 -110 158 -119 5 -2 13 7 17 21
3 14 78 264 164 555 87 292 158 535 159 541 1 11 -97 89 -141 113 -18 9 -40
-2 -165 -82z m11 -362 c-33 -105 -62 -196 -64 -203 -3 -8 -46 18 -115 69 -95
69 -109 84 -98 95 16 16 332 233 335 230 1 -1 -25 -87 -58 -191z"/>
<path d="M12729 4486 c-47 -19 -264 -161 -358 -235 l-24 -18 285 -409 c156
-225 299 -430 317 -457 l32 -47 67 47 c37 25 74 53 84 60 15 13 3 33 -120 210
-107 155 -132 197 -121 204 39 27 91 49 113 49 42 0 70 -15 243 -136 92 -64
173 -117 178 -117 18 0 175 114 170 123 -6 10 -344 240 -414 282 -25 15 -56
28 -68 28 l-22 0 22 48 c32 70 29 153 -8 221 -83 152 -227 209 -376 147z m141
-191 c60 -31 87 -131 54 -201 -22 -46 -133 -129 -150 -112 -11 12 -142 198
-157 224 -6 11 93 83 133 97 30 11 92 7 120 -8z"/>
<path d="M6135 3704 c-135 -273 -245 -498 -245 -500 0 -6 159 -84 170 -84 6 0
86 154 179 343 l169 342 2 -280 c2 -154 5 -350 9 -435 l6 -155 99 -48 c54 -26
100 -46 102 -44 8 7 484 980 484 988 0 13 -159 91 -170 84 -6 -3 -85 -160
-177 -347 l-168 -342 -5 435 -5 434 -103 53 -102 53 -245 -497z"/>
<path d="M11830 3988 c-140 -66 -259 -123 -263 -128 -8 -7 435 -973 457 -997
8 -8 79 20 283 116 150 70 275 130 278 133 4 3 -11 40 -32 82 l-38 75 -179
-84 c-99 -47 -185 -85 -190 -85 -8 0 -111 208 -134 271 -2 5 38 29 90 53 51
24 128 60 170 80 l78 36 -37 75 c-36 72 -55 88 -78 66 -22 -19 -299 -141 -305
-134 -20 24 -110 237 -103 243 4 4 83 43 176 85 189 88 178 73 126 178 -16 31
-33 57 -37 56 -4 0 -122 -55 -262 -121z"/>
<path d="M11235 3731 c-87 -26 -90 -28 -97 -61 -3 -19 -14 -206 -23 -415 -9
-209 -18 -381 -19 -382 -2 -2 -101 148 -221 332 -121 185 -224 340 -231 346
-14 11 -210 -40 -208 -54 2 -11 642 -955 652 -961 6 -3 172 41 179 48 2 2 72
1122 73 1174 0 4 -13 1 -105 -27z"/>
<path d="M7885 3578 c-2 -7 -36 -179 -76 -383 -62 -320 -71 -380 -67 -450 10
-179 122 -292 330 -333 138 -27 253 5 342 95 77 79 88 112 171 537 42 214 73
392 68 396 -10 9 -185 42 -191 36 -2 -2 -35 -162 -72 -354 -81 -412 -82 -415
-117 -469 -75 -116 -263 -97 -313 32 -22 56 -11 150 59 505 39 195 67 357 63
361 -6 5 -165 39 -185 39 -4 0 -10 -6 -12 -12z"/>
<path d="M10140 3479 c-30 -5 -73 -11 -96 -14 l-41 -6 69 -542 c38 -298 70
-547 72 -553 3 -7 33 -7 102 3 54 7 98 14 100 16 1 2 -82 676 -122 980 -9 70
-20 126 -23 126 -3 -1 -31 -5 -61 -10z"/>
<path d="M8920 2870 l0 -560 100 0 100 0 2 381 3 382 193 -382 193 -381 115 0
114 0 0 560 0 560 -100 0 -100 0 -2 -387 -3 -388 -195 385 -195 385 -112 3
-113 3 0 -561z"/>
</g>
</svg>
